<?xml version="1.0" encoding="UTF-8"?>
<svg version="1.1" xmlns="http://www.w3.org/2000/svg" width="1254" height="1254">
<path d="M0 0 C413.82 0 827.64 0 1254 0 C1254 413.82 1254 827.64 1254 1254 C840.18 1254 426.36 1254 0 1254 C0 840.18 0 426.36 0 0 Z " fill="#FDFDFD" transform="translate(0,0)"/>
<path d="M0 0 C76.89 0 153.78 0 233 0 C233 12.87 233 25.74 233 39 C245.87 39 258.74 39 272 39 C272 51.87 272 64.74 272 78 C391.79 78 511.58 78 635 78 C635 90.87 635 103.74 635 117 C647.87 117 660.74 117 674 117 C674 266.16 674 415.32 674 569 C661.13 569 648.26 569 635 569 C635 581.87 635 594.74 635 608 C412.58 608 190.16 608 -39 608 C-39 595.13 -39 582.26 -39 569 C-51.87 569 -64.74 569 -78 569 C-78 406.97 -78 244.94 -78 78 C-65.13 78 -52.26 78 -39 78 C-39 65.13 -39 52.26 -39 39 C-26.13 39 -13.26 39 0 39 C0 26.13 0 13.26 0 0 Z " fill="#FDDB9D" transform="translate(328,300)"/>
<path d="M0 0 C76.89 0 153.78 0 233 0 C233 12.87 233 25.74 233 39 C245.87 39 258.74 39 272 39 C272 51.87 272 64.74 272 78 C391.79 78 511.58 78 635 78 C635 90.87 635 103.74 635 117 C647.87 117 660.74 117 674 117 C674 266.16 674 415.32 674 569 C661.13 569 648.26 569 635 569 C635 581.87 635 594.74 635 608 C412.58 608 190.16 608 -39 608 C-39 595.13 -39 582.26 -39 569 C-51.87 569 -64.74 569 -78 569 C-78 406.97 -78 244.94 -78 78 C-65.13 78 -52.26 78 -39 78 C-39 65.13 -39 52.26 -39 39 C-26.13 39 -13.26 39 0 39 C0 26.13 0 13.26 0 0 Z M272 117 C272 129.87 272 142.74 272 156 C182.24 156 92.48 156 0 156 C0 168.87 0 181.74 0 195 C-12.54 195 -25.08 195 -38 195 C-38 293.01 -38 391.02 -38 492 C-26.12 492.33 -14.24 492.66 -2 493 C1.90583609 504.71750827 -0.36311763 517.6540006 0 530 C184.14 530 368.28 530 558 530 C558 517.46 558 504.92 558 492 C570.54 492 583.08 492 596 492 C596 381.12 596 270.24 596 156 C608.87 156 621.74 156 635 156 C635 143.13 635 130.26 635 117 C515.21 117 395.42 117 272 117 Z " fill="#FAB96C" transform="translate(328,300)"/>
<path d="M0 0 C76.89 0 153.78 0 233 0 C233 12.87 233 25.74 233 39 C245.87 39 258.74 39 272 39 C272 51.87 272 64.74 272 78 C391.79 78 511.58 78 635 78 C635 90.87 635 103.74 635 117 C515.21 117 395.42 117 272 117 C272 129.87 272 142.74 272 156 C182.24 156 92.48 156 0 156 C0 168.87 0 181.74 0 195 C-12.54 195 -25.08 195 -38 195 C-37.99777939 198.53510284 -37.99555878 202.07020569 -37.99327087 205.71243286 C-37.97315114 238.52257268 -37.95833681 271.33271162 -37.94893467 304.14285631 C-37.94768473 308.48862948 -37.94639034 312.83440263 -37.94506836 317.18017578 C-37.94480605 318.04493754 -37.94454374 318.9096993 -37.94427348 319.80066596 C-37.94051122 331.90096133 -37.93436049 344.0012534 -37.92626567 356.10154662 C-37.91232429 376.94530142 -37.90306288 397.78905274 -37.90234375 418.6328125 C-37.90228589 419.84557804 -37.90228589 419.84557804 -37.90222687 421.0828439 C-37.90065259 470.39492476 -38.08648339 519.69482053 -39 569 C-51.87 569 -64.74 569 -78 569 C-78 406.97 -78 244.94 -78 78 C-65.13 78 -52.26 78 -39 78 C-39 65.13 -39 52.26 -39 39 C-26.13 39 -13.26 39 0 39 C0 26.13 0 13.26 0 0 Z " fill="#FADBA1" transform="translate(328,300)"/>
<path d="M0 0 C12.87 0 25.74 0 39 0 C39 12.87 39 25.74 39 39 C158.79 39 278.58 39 402 39 C402 51.87 402 64.74 402 78 C281.88 78 161.76 78 38 78 C38 90.54 38 103.08 38 116 C-51.43 116 -140.86 116 -233 116 C-233 103.46 -233 90.92 -233 78 C-220.79 77.67 -208.58 77.34 -196 77 C-196.0395502 65.61655334 -196.0395502 65.61655334 -196.09008789 54.2331543 C-196.09300874 52.80517654 -196.0955569 51.37719795 -196.09765625 49.94921875 C-196.10277222 49.20885376 -196.10788818 48.46848877 -196.11315918 47.70568848 C-196.11369951 44.53015583 -196.01203336 42.03610008 -195 39 C-130.65 39 -66.3 39 0 39 C0 26.13 0 13.26 0 0 Z " fill="#FCC46F" transform="translate(561,339)"/>
<path d="M0 0 C222.42 0 444.84 0 674 0 C674 12.87 674 25.74 674 39 C451.58 39 229.16 39 0 39 C0 26.13 0 13.26 0 0 Z " fill="#12113A" transform="translate(289,869)"/>
<path d="M0 0 C89.76 0 179.52 0 272 0 C272 12.87 272 25.74 272 39 C195.11 39 118.22 39 39 39 C39 51.87 39 64.74 39 78 C26.13 78 13.26 78 0 78 C0 162.81 0 247.62 0 335 C-12.54 335 -25.08 335 -38 335 C-38 237.32 -38 139.64 -38 39 C-25.46 39 -12.92 39 0 39 C0 26.13 0 13.26 0 0 Z " fill="#FDF6ED" transform="translate(328,456)"/>
<path d="M0 0 C12.87 0 25.74 0 39 0 C39 162.03 39 324.06 39 491 C26.13 491 13.26 491 0 491 C0 328.97 0 166.94 0 0 Z " fill="#13123B" transform="translate(250,378)"/>
<path d="M0 0 C12.87 0 25.74 0 39 0 C39 149.16 39 298.32 39 452 C26.13 452 13.26 452 0 452 C0 302.84 0 153.68 0 0 Z " fill="#11103A" transform="translate(963,417)"/>
<path d="M0 0 C119.79 0 239.58 0 363 0 C363 12.87 363 25.74 363 39 C243.21 39 123.42 39 0 39 C0 26.13 0 13.26 0 0 Z " fill="#FDFAF4" transform="translate(600,417)"/>
<path d="M0 0 C119.79 0 239.58 0 363 0 C363 12.87 363 25.74 363 39 C243.21 39 123.42 39 0 39 C0 26.13 0 13.26 0 0 Z " fill="#12113A" transform="translate(600,378)"/>
<path d="M0 0 C76.89 0 153.78 0 233 0 C233 12.87 233 25.74 233 39 C156.11 39 79.22 39 0 39 C0 26.13 0 13.26 0 0 Z " fill="#13113B" transform="translate(328,300)"/>
<path d="M0 0 C12.87 0 25.74 0 39 0 C39 149.16 39 298.32 39 452 C26.13 452 13.26 452 0 452 C0 302.84 0 153.68 0 0 Z M2 1 C2 149.17 2 297.34 2 450 C13.55 450 25.1 450 37 450 C37 301.83 37 153.66 37 1 C25.45 1 13.9 1 2 1 Z " fill="#222042" transform="translate(963,417)"/>
<path d="M0 0 C12.87 0 25.74 0 39 0 C39 12.87 39 25.74 39 39 C26.13 39 13.26 39 0 39 C0 26.13 0 13.26 0 0 Z " fill="#16143C" transform="translate(561,339)"/>
<path d="M0 0 C12.87 0 25.74 0 39 0 C39 12.87 39 25.74 39 39 C26.13 39 13.26 39 0 39 C0 26.13 0 13.26 0 0 Z " fill="#15143C" transform="translate(289,339)"/>
<path d="M0 0 C12.21 0 24.42 0 37 0 C37 12.54 37 25.08 37 38 C24.79 38 12.58 38 0 38 C0 25.46 0 12.92 0 0 Z " fill="#FDC470" transform="translate(290,456)"/>
<path d="M0 0 C1.65 0 3.3 0 5 0 C3.515 1.98 3.515 1.98 2 4 C1.67 27.43 1.34 50.86 1 75 C222.43 75 443.86 75 672 75 C672 75.33 672 75.66 672 76 C450.24 76 228.48 76 0 76 C0 50.92 0 25.84 0 0 Z " fill="#FECA75" transform="translate(290,792)"/>
<path d="M0 0 C0.33 0 0.66 0 1 0 C1 12.54 1 25.08 1 38 C90.43 38 179.86 38 272 38 C272 25.46 272 12.92 272 0 C272.33 0 272.66 0 273 0 C273 12.87 273 25.74 273 39 C183.24 39 93.48 39 1 39 C1 51.87 1 64.74 1 78 C-11.54 78 -24.08 78 -37 78 C-37 77.67 -37 77.34 -37 77 C-24.79 77 -12.58 77 0 77 C0 64.46 0 51.92 0 39 C-6.27 39 -12.54 39 -19 39 C-19 38.67 -19 38.34 -19 38 C-12.73 38 -6.46 38 0 38 C0 25.46 0 12.92 0 0 Z " fill="#FCD193" transform="translate(327,417)"/>
</svg>
