<?xml version="1.0" encoding="UTF-8"?>
<svg version="1.1" xmlns="http://www.w3.org/2000/svg" width="1254" height="1254">
<path d="M0 0 C45.54 0 91.08 0 138 0 C138 12.21 138 24.42 138 37 C149.55 37 161.1 37 173 37 C173 49.21 173 61.42 173 74 C195.44 74 217.88 74 241 74 C241 61.79 241 49.58 241 37 C252.55 37 264.1 37 276 37 C276 24.79 276 12.58 276 0 C321.54 0 367.08 0 414 0 C414 12.21 414 24.42 414 37 C425.55 37 437.1 37 449 37 C449 49.21 449 61.42 449 74 C460.55 74 472.1 74 484 74 C484 130.76 484 187.52 484 246 C472.45 246 460.9 246 449 246 C449 257.22 449 268.44 449 280 C437.45 280 425.9 280 414 280 C414 291.55 414 303.1 414 315 C402.78 315 391.56 315 380 315 C380 326.22 380 337.44 380 349 C368.45 349 356.9 349 345 349 C345 360.55 345 372.1 345 384 C333.78 384 322.56 384 311 384 C311 395.55 311 407.1 311 419 C299.78 419 288.56 419 277 419 C277 430.22 277 441.44 277 453 C265.45 453 253.9 453 242 453 C242 464.55 242 476.1 242 488 C218.9 488 195.8 488 172 488 C172 476.45 172 464.9 172 453 C160.78 453 149.56 453 138 453 C138 441.45 138 429.9 138 418 C126.45 418 114.9 418 103 418 C103 406.78 103 395.56 103 384 C91.78 384 80.56 384 69 384 C69 372.45 69 360.9 69 349 C57.45 349 45.9 349 34 349 C34 337.78 34 326.56 34 315 C22.78 315 11.56 315 0 315 C0 303.45 0 291.9 0 280 C-11.88 280 -23.76 280 -36 280 C-36 268.78 -36 257.56 -36 246 C-47.88 246 -59.76 246 -72 246 C-72 189.24 -72 132.48 -72 74 C-60.12 74 -48.24 74 -36 74 C-36 61.79 -36 49.58 -36 37 C-24.12 37 -12.24 37 0 37 C0 24.79 0 12.58 0 0 Z " fill="#FD85AD" transform="translate(420,342)"/>
<path d="M0 0 C45.54 0 91.08 0 138 0 C138 12.21 138 24.42 138 37 C149.55 37 161.1 37 173 37 C173 49.21 173 61.42 173 74 C184.55 74 196.1 74 208 74 C208 130.76 208 187.52 208 246 C196.45 246 184.9 246 173 246 C173 257.22 173 268.44 173 280 C161.45 280 149.9 280 138 280 C138 291.55 138 303.1 138 315 C126.78 315 115.56 315 104 315 C104 326.22 104 337.44 104 349 C92.45 349 80.9 349 69 349 C69 337.45 69 325.9 69 314 C80.22 314 91.44 314 103 314 C102.9690625 306.636875 102.9690625 306.636875 102.9375 299.125 C102.90176192 281.40239854 103.37024725 263.71012113 104 246 C126.690371 245.07776678 149.2699503 245 172 245 C172 188.9 172 132.8 172 75 C149.23 75 126.46 75 103 75 C103 62.79 103 50.58 103 38 C69.34 38 35.68 38 1 38 C1 49.88 1 61.76 1 74 C-10.88 74 -22.76 74 -35 74 C-35 61.79 -35 49.58 -35 37 C-23.45 37 -11.9 37 0 37 C0 24.79 0 12.58 0 0 Z " fill="#DF598E" transform="translate(696,342)"/>
<path d="M0 0 C22.77 0 45.54 0 69 0 C69 10.89 69 21.78 69 33 C52.5625 32.9375 52.5625 32.9375 47.36938477 32.90991211 C46.01839273 32.90699284 44.66739981 32.90444431 43.31640625 32.90234375 C42.60899292 32.89722778 41.90157959 32.89211182 41.17272949 32.88684082 C39.44807383 32.88652968 37.72353162 32.93774239 36 33 C35.67 33.33 35.34 33.66 35 34 C57.44 34 79.88 34 103 34 C103 44.89 103 55.78 103 67 C87.0625 66.9375 87.0625 66.9375 82.02758789 66.90991211 C80.08227173 66.90616577 80.08227173 66.90616577 78.09765625 66.90234375 C77.06892395 66.8946698 77.06892395 66.8946698 76.01940918 66.88684082 C74.34584769 66.88652946 72.6724042 66.93777163 71 67 C70.67 67.33 70.34 67.66 70 68 C70.99443115 67.99476318 71.9888623 67.98952637 73.01342773 67.98413086 C76.69033921 67.96607959 80.36724675 67.95456754 84.04418945 67.94506836 C85.63794614 67.94002843 87.23169819 67.9331965 88.82543945 67.92456055 C91.11150253 67.91248001 93.39750467 67.90676845 95.68359375 67.90234375 C96.40026718 67.89718246 97.11694061 67.89202118 97.85533142 67.88670349 C99.57063672 67.88650737 101.28581266 67.93807993 103 68 C111.2529456 76.2529456 104 91.3285724 104 103 C126.77 103 149.54 103 173 103 C173 126.1 173 149.2 173 173 C195.44 173 217.88 173 241 173 C241 161.45 241 149.9 241 138 C252.55 138 264.1 138 276 138 C276 115.23 276 92.46 276 69 C298.77 69 321.54 69 345 69 C345 80.55 345 92.1 345 104 C333.78 104 322.56 104 311 104 C311 115.55 311 127.1 311 139 C299.78 139 288.56 139 277 139 C277 150.22 277 161.44 277 173 C265.45 173 253.9 173 242 173 C242 184.55 242 196.1 242 208 C218.9 208 195.8 208 172 208 C172 196.45 172 184.9 172 173 C160.78 173 149.56 173 138 173 C138 161.45 138 149.9 138 138 C126.45 138 114.9 138 103 138 C103 126.78 103 115.56 103 104 C91.78 104 80.56 104 69 104 C69 92.45 69 80.9 69 69 C57.45 69 45.9 69 34 69 C34 57.78 34 46.56 34 35 C22.78 35 11.56 35 0 35 C0 23.45 0 11.9 0 0 Z " fill="#CD598A" transform="translate(420,622)"/>
<path d="M0 0 C11.88 0 23.76 0 36 0 C36 12.54 36 25.08 36 38 C24.45 38 12.9 38 1 38 C1 83.21 1 128.42 1 175 C12.55 175 24.1 175 36 175 C36 197.44 36 219.88 36 243 C24.12 243 12.24 243 0 243 C0 231.78 0 220.56 0 209 C-11.88 209 -23.76 209 -36 209 C-36 152.24 -36 95.48 -36 37 C-24.12 37 -12.24 37 0 37 C0 24.79 0 12.58 0 0 Z " fill="#160530" transform="translate(384,379)"/>
<path d="M0 0 C22.77 0 45.54 0 69 0 C69 10.89 69 21.78 69 33 C52.5625 32.9375 52.5625 32.9375 47.36938477 32.90991211 C46.01839273 32.90699284 44.66739981 32.90444431 43.31640625 32.90234375 C42.60899292 32.89722778 41.90157959 32.89211182 41.17272949 32.88684082 C39.44807383 32.88652968 37.72353162 32.93774239 36 33 C35.67 33.33 35.34 33.66 35 34 C57.44 34 79.88 34 103 34 C103 44.89 103 55.78 103 67 C87.0625 66.9375 87.0625 66.9375 82.02758789 66.90991211 C80.08227173 66.90616577 80.08227173 66.90616577 78.09765625 66.90234375 C77.06892395 66.8946698 77.06892395 66.8946698 76.01940918 66.88684082 C74.34584769 66.88652946 72.6724042 66.93777163 71 67 C70.67 67.33 70.34 67.66 70 68 C70.99443115 67.99476318 71.9888623 67.98952637 73.01342773 67.98413086 C76.69033921 67.96607959 80.36724675 67.95456754 84.04418945 67.94506836 C85.63794614 67.94002843 87.23169819 67.9331965 88.82543945 67.92456055 C91.11150253 67.91248001 93.39750467 67.90676845 95.68359375 67.90234375 C96.40026718 67.89718246 97.11694061 67.89202118 97.85533142 67.88670349 C99.57063672 67.88650737 101.28581266 67.93807993 103 68 C111.2529456 76.2529456 104 91.3285724 104 103 C126.77 103 149.54 103 173 103 C173 114.55 173 126.1 173 138 C149.9 138 126.8 138 103 138 C103 126.78 103 115.56 103 104 C91.78 104 80.56 104 69 104 C69 92.45 69 80.9 69 69 C57.45 69 45.9 69 34 69 C34 57.78 34 46.56 34 35 C22.78 35 11.56 35 0 35 C0 23.45 0 11.9 0 0 Z " fill="#E76D9C" transform="translate(420,622)"/>
<path d="M0 0 C10.89 0 21.78 0 33 0 C34.18059563 32.61046823 34.12066596 65.2030165 34.07202661 97.8287797 C34.06063789 105.60932182 34.05529796 113.38986505 34.05032361 121.17041349 C34.04000231 137.11361866 34.02253132 153.05680711 34 169 C29.0568666 169.14415161 24.11365754 169.28524797 19.17036438 169.42381287 C17.49751068 169.4710993 15.82467819 169.51914403 14.15187073 169.56803894 C-1.90777388 170.03649936 -17.93238872 170.07614982 -34 170 C-34 181.22 -34 192.44 -34 204 C-34.33 204 -34.66 204 -35 204 C-35 181.56 -35 159.12 -35 136 C-23.45 136 -11.9 136 0 136 C0 91.12 0 46.24 0 0 Z " fill="#E35B91" transform="translate(834,418)"/>
<path d="M0 0 C22.77 0 45.54 0 69 0 C69 12.54 69 25.08 69 38 C57.78 38 46.56 38 35 38 C35 49.22 35 60.44 35 72 C23.45 72 11.9 72 0 72 C0 82.56 0 93.12 0 104 C-11.22 104 -22.44 104 -34 104 C-34 82.22 -34 60.44 -34 38 C-22.78 38 -11.56 38 0 38 C0 25.46 0 12.92 0 0 Z " fill="#FDCEE0" transform="translate(454,416)"/>
<path d="M0 0 C11.22 0 22.44 0 34 0 C34 56.1 34 112.2 34 170 C22.78 170 11.56 170 0 170 C0 113.9 0 57.8 0 0 Z " fill="#160531" transform="translate(869,417)"/>
<path d="M0 0 C45.21 0 90.42 0 137 0 C137 11.88 137 23.76 137 36 C91.79 36 46.58 36 0 36 C0 24.12 0 12.24 0 0 Z " fill="#160530" transform="translate(420,343)"/>
<path d="M0 0 C44.88 0 89.76 0 136 0 C136 11.88 136 23.76 136 36 C91.12 36 46.24 36 0 36 C0 24.12 0 12.24 0 0 Z " fill="#160531" transform="translate(697,343)"/>
<path d="M0 0 C11.88 0 23.76 0 36 0 C36 12.54 36 25.08 36 38 C24.45 38 12.9 38 1 38 C1 83.21 1 128.42 1 175 C12.55 175 24.1 175 36 175 C36 197.44 36 219.88 36 243 C24.12 243 12.24 243 0 243 C0 231.78 0 220.56 0 209 C-11.88 209 -23.76 209 -36 209 C-36 152.24 -36 95.48 -36 37 C-24.12 37 -12.24 37 0 37 C0 24.79 0 12.58 0 0 Z M-35 38 C-35 94.1 -35 150.2 -35 208 C-23.45 208 -11.9 208 0 208 C0 151.9 0 95.8 0 38 C-11.55 38 -23.1 38 -35 38 Z " fill="#E56E9C" transform="translate(384,379)"/>
<path d="M0 0 C33.99 0 67.98 0 103 0 C103 11.88 103 23.76 103 36 C69.01 36 35.02 36 0 36 C0 24.12 0 12.24 0 0 Z " fill="#F3A6C7" transform="translate(420,380)"/>
<path d="M0 0 C4.888125 0.020625 9.77625 0.04125 14.8125 0.0625 C14.8125 12.6025 14.8125 25.1425 14.8125 38.0625 C3.5925 38.0625 -7.6275 38.0625 -19.1875 38.0625 C-19.1875 59.8425 -19.1875 81.6225 -19.1875 104.0625 C-7.9675 104.0625 3.2525 104.0625 14.8125 104.0625 C14.8125 93.5025 14.8125 82.9425 14.8125 72.0625 C15.1425 72.0625 15.4725 72.0625 15.8125 72.0625 C15.8125 82.9525 15.8125 93.8425 15.8125 105.0625 C3.9325 105.0625 -7.9475 105.0625 -20.1875 105.0625 C-20.1875 82.9525 -20.1875 60.8425 -20.1875 38.0625 C-36.0275 38.5575 -36.0275 38.5575 -52.1875 39.0625 C-52.5175 71.7325 -52.8475 104.4025 -53.1875 138.0625 C-53.5175 138.0625 -53.8475 138.0625 -54.1875 138.0625 C-54.1875 92.8525 -54.1875 47.6425 -54.1875 1.0625 C-13.94830247 -0.08719136 -13.94830247 -0.08719136 0 0 Z " fill="#FB8DB3" transform="translate(439.1875,415.9375)"/>
<path d="M0 0 C56.76 0 113.52 0 172 0 C172 12.54 172 25.08 172 38 C160.78 38 149.56 38 138 38 C138 25.79 138 13.58 138 1 C104.34 1 70.68 1 36 1 C36 12.88 36 24.76 36 37 C24.12 37 12.24 37 0 37 C0 24.79 0 12.58 0 0 Z " fill="#DB6796" transform="translate(661,379)"/>
<path d="M0 0 C0.33 0 0.66 0 1 0 C1 11.22 1 22.44 1 34 C23.77 34 46.54 34 70 34 C70 45.55 70 57.1 70 69 C46.9 69 23.8 69 0 69 C0 57.78 0 46.56 0 35 C-11.22 35 -22.44 35 -34 35 C-34 34.67 -34 34.34 -34 34 C-22.78 34 -11.56 34 0 34 C0 22.78 0 11.56 0 0 Z " fill="#E76C9C" transform="translate(523,691)"/>
<path d="M0 0 C22.44 0 44.88 0 68 0 C68 12.21 68 24.42 68 37 C45.56 37 23.12 37 0 37 C0 24.79 0 12.58 0 0 Z " fill="#160532" transform="translate(593,417)"/>
<path d="M0 0 C22.11 0 44.22 0 67 0 C67 11.55 67 23.1 67 35 C44.89 35 22.78 35 0 35 C0 23.45 0 11.9 0 0 Z " fill="#E76D9C" transform="translate(594,760)"/>
<path d="M0 0 C22.44 0 44.88 0 68 0 C68 11.22 68 22.44 68 34 C45.56 34 23.12 34 0 34 C0 22.78 0 11.56 0 0 Z " fill="#170531" transform="translate(593,795)"/>
<path d="M0 0 C11.55 0 23.1 0 35 0 C35 12.21 35 24.42 35 37 C23.45 37 11.9 37 0 37 C0 24.79 0 12.58 0 0 Z " fill="#170631" transform="translate(385,379)"/>
<path d="M0 0 C11.55 0 23.1 0 35 0 C35 12.21 35 24.42 35 37 C23.45 37 11.9 37 0 37 C0 24.79 0 12.58 0 0 Z " fill="#170631" transform="translate(661,379)"/>
<path d="M0 0 C11.22 0 22.44 0 34 0 C34 12.21 34 24.42 34 37 C22.78 37 11.56 37 0 37 C0 24.79 0 12.58 0 0 Z " fill="#FDE5EE" transform="translate(455,417)"/>
<path d="M0 0 C11.22 0 22.44 0 34 0 C34 12.21 34 24.42 34 37 C22.78 37 11.56 37 0 37 C0 24.79 0 12.58 0 0 Z " fill="#150530" transform="translate(834,379)"/>
<path d="M0 0 C11.22 0 22.44 0 34 0 C34 12.21 34 24.42 34 37 C22.78 37 11.56 37 0 37 C0 24.79 0 12.58 0 0 Z " fill="#160631" transform="translate(558,379)"/>
<path d="M0 0 C11.55 0 23.1 0 35 0 C35 10.89 35 21.78 35 33 C31.46173745 34.17942085 28.65851274 34.11289189 24.92578125 34.09765625 C23.67450439 34.09515869 22.42322754 34.09266113 21.1340332 34.09008789 C18.74737427 34.07643188 18.74737427 34.07643188 16.3125 34.0625 C11.259375 34.041875 6.20625 34.02125 1 34 C1 45.22 1 56.44 1 68 C0.67 68 0.34 68 0 68 C0 45.56 0 23.12 0 0 Z " fill="#E76E9C" transform="translate(799,554)"/>
<path d="M0 0 C10.89 0 21.78 0 33 0 C33 11.88 33 23.76 33 36 C22.11 36 11.22 36 0 36 C0 24.12 0 12.24 0 0 Z " fill="#E56E9C" transform="translate(834,418)"/>
<path d="M0 0 C11.22 0 22.44 0 34 0 C34.33 11.22 34.66 22.44 35 34 C23.45 34 11.9 34 0 34 C0 22.78 0 11.56 0 0 Z " fill="#E76E9C" transform="translate(420,588)"/>
<path d="M0 0 C11.22 0 22.44 0 34 0 C34 11.22 34 22.44 34 34 C22.78 34 11.56 34 0 34 C0 22.78 0 11.56 0 0 Z " fill="#170632" transform="translate(558,761)"/>
<path d="M0 0 C11.22 0 22.44 0 34 0 C34 11.22 34 22.44 34 34 C22.78 34 11.56 34 0 34 C0 22.78 0 11.56 0 0 Z " fill="#160631" transform="translate(662,761)"/>
<path d="M0 0 C11.22 0 22.44 0 34 0 C34 11.22 34 22.44 34 34 C22.78 34 11.56 34 0 34 C0 22.78 0 11.56 0 0 Z " fill="#160632" transform="translate(696,726)"/>
<path d="M0 0 C11.22 0 22.44 0 34 0 C34 11.22 34 22.44 34 34 C22.78 34 11.56 34 0 34 C0 22.78 0 11.56 0 0 Z " fill="#170632" transform="translate(524,726)"/>
<path d="M0 0 C11.22 0 22.44 0 34 0 C34 11.22 34 22.44 34 34 C22.78 34 11.56 34 0 34 C0 22.78 0 11.56 0 0 Z " fill="#E45A90" transform="translate(662,726)"/>
<path d="M0 0 C11.22 0 22.44 0 34 0 C34 11.22 34 22.44 34 34 C22.78 34 11.56 34 0 34 C0 22.78 0 11.56 0 0 Z " fill="#180733" transform="translate(731,691)"/>
<path d="M0 0 C11.22 0 22.44 0 34 0 C34 11.22 34 22.44 34 34 C22.78 34 11.56 34 0 34 C0 22.78 0 11.56 0 0 Z " fill="#160631" transform="translate(489,691)"/>
<path d="M0 0 C11.22 0 22.44 0 34 0 C34 11.22 34 22.44 34 34 C22.78 34 11.56 34 0 34 C0 22.78 0 11.56 0 0 Z " fill="#180732" transform="translate(455,657)"/>
<path d="M0 0 C11.22 0 22.44 0 34 0 C34 11.22 34 22.44 34 34 C22.78 34 11.56 34 0 34 C0 22.78 0 11.56 0 0 Z " fill="#180633" transform="translate(765,657)"/>
<path d="M0 0 C11.22 0 22.44 0 34 0 C34 11.22 34 22.44 34 34 C22.78 34 11.56 34 0 34 C0 22.78 0 11.56 0 0 Z " fill="#E25C91" transform="translate(731,657)"/>
<path d="M0 0 C11.22 0 22.44 0 34 0 C34 11.22 34 22.44 34 34 C22.78 34 11.56 34 0 34 C0 22.78 0 11.56 0 0 Z " fill="#150530" transform="translate(420,622)"/>
<path d="M0 0 C11.22 0 22.44 0 34 0 C34 11.22 34 22.44 34 34 C22.78 34 11.56 34 0 34 C0 22.78 0 11.56 0 0 Z " fill="#E55D93" transform="translate(765,622)"/>
<path d="M0 0 C11.22 0 22.44 0 34 0 C34 10.89 34 21.78 34 33 C18.0625 32.9375 18.0625 32.9375 13.02758789 32.90991211 C11.08227173 32.90616577 11.08227173 32.90616577 9.09765625 32.90234375 C8.41183472 32.89722778 7.72601318 32.89211182 7.01940918 32.88684082 C5.34584769 32.88652946 3.6724042 32.93777163 2 33 C1.505 33.495 1.505 33.495 1 34 C11.89 34 22.78 34 34 34 C34 34.33 34 34.66 34 35 C22.78 35 11.56 35 0 35 C0 23.45 0 11.9 0 0 Z " fill="#E66F9D" transform="translate(489,656)"/>
<path d="M0 0 C10.89 0 21.78 0 33 0 C33 11.22 33 22.44 33 34 C22.11 34 11.22 34 0 34 C0 22.78 0 11.56 0 0 Z " fill="#E25A90" transform="translate(627,761)"/>
<path d="M0 0 C10.89 0 21.78 0 33 0 C33 11.22 33 22.44 33 34 C22.11 34 11.22 34 0 34 C0 22.78 0 11.56 0 0 Z " fill="#160531" transform="translate(800,622)"/>
<path d="M0 0 C11.22 0 22.44 0 34 0 C34 10.89 34 21.78 34 33 C22.78 33 11.56 33 0 33 C0 22.11 0 11.22 0 0 Z " fill="#160531" transform="translate(834,588)"/>
<path d="M0 0 C11.22 0 22.44 0 34 0 C34 10.89 34 21.78 34 33 C22.78 33 11.56 33 0 33 C0 22.11 0 11.22 0 0 Z " fill="#150530" transform="translate(385,588)"/>
<path d="M0 0 C10.89 0 21.78 0 33 0 C33 10.89 33 21.78 33 33 C22.11 33 11.22 33 0 33 C0 22.11 0 11.22 0 0 Z " fill="#E76C9B" transform="translate(525,691)"/>
<path d="M0 0 C11.22 0 22.44 0 34 0 C34 10.56 34 21.12 34 32 C22.78 32 11.56 32 0 32 C0 21.44 0 10.88 0 0 Z " fill="#FDC2D8" transform="translate(420,488)"/>
<path d="M0 0 C45.54 0 91.08 0 138 0 C138 24.42 138 48.84 138 74 C149.22 74 160.44 74 172 74 C172 61.79 172 49.58 172 37 C172.33 37 172.66 37 173 37 C173 49.21 173 61.42 173 74 C184.55 74 196.1 74 208 74 C208 130.76 208 187.52 208 246 C196.45 246 184.9 246 173 246 C173 257.22 173 268.44 173 280 C161.45 280 149.9 280 138 280 C138 279.67 138 279.34 138 279 C149.22 279 160.44 279 172 279 C172 211.68 172 144.36 172 75 C160.45 75 148.9 75 137 75 C137 50.58 137 26.16 137 1 C92.12 1 47.24 1 1 1 C1 12.88 1 24.76 1 37 C0.67 37 0.34 37 0 37 C0 24.79 0 12.58 0 0 Z M173 75 C173 131.1 173 187.2 173 245 C184.22 245 195.44 245 207 245 C207 188.9 207 132.8 207 75 C195.78 75 184.56 75 173 75 Z " fill="#745975" transform="translate(696,342)"/>
<path d="M0 0 C45.54 0 91.08 0 138 0 C138 24.42 138 48.84 138 74 C149.22 74 160.44 74 172 74 C172 61.79 172 49.58 172 37 C172.33 37 172.66 37 173 37 C173 49.21 173 61.42 173 74 C206.99 74 240.98 74 276 74 C276 74.33 276 74.66 276 75 C264.78 75 253.56 75 242 75 C242 87.21 242 99.42 242 112 C241.67 112 241.34 112 241 112 C241 99.79 241 87.58 241 75 C218.56 75 196.12 75 173 75 C173 87.21 173 99.42 173 112 C172.67 112 172.34 112 172 112 C172 99.79 172 87.58 172 75 C160.45 75 148.9 75 137 75 C137 62.79 137 50.58 137 38 C91.79 38 46.58 38 0 38 C0 37.67 0 37.34 0 37 C45.21 37 90.42 37 137 37 C137 25.12 137 13.24 137 1 C91.79 1 46.58 1 0 1 C0 0.67 0 0.34 0 0 Z " fill="#906B88" transform="translate(420,342)"/>
<path d="M0 0 C0.33 0 0.66 0 1 0 C1 12.21 1 24.42 1 37 C12.55 37 24.1 37 36 37 C36 37.33 36 37.66 36 38 C24.45 38 12.9 38 1 38 C1 67.7 1 97.4 1 128 C0.67 128 0.34 128 0 128 C0 98.3 0 68.6 0 38 C-11.55 38 -23.1 38 -35 38 C-35 94.1 -35 150.2 -35 208 C-11.57 208 11.86 208 36 208 C36 219.55 36 231.1 36 243 C24.12 243 12.24 243 0 243 C0 231.78 0 220.56 0 209 C-11.88 209 -23.76 209 -36 209 C-36 152.24 -36 95.48 -36 37 C-24.12 37 -12.24 37 0 37 C0 24.79 0 12.58 0 0 Z M1 209 C1 219.89 1 230.78 1 242 C12.22 242 23.44 242 35 242 C35 231.11 35 220.22 35 209 C23.78 209 12.56 209 1 209 Z " fill="#896A88" transform="translate(384,379)"/>
<path d="M0 0 C0.33 0 0.66 0 1 0 C1 12.21 1 24.42 1 37 C34.99 37 68.98 37 104 37 C104 37.33 104 37.66 104 38 C92.78 38 81.56 38 70 38 C70 50.21 70 62.42 70 75 C69.67 75 69.34 75 69 75 C69 62.79 69 50.58 69 38 C46.56 38 24.12 38 1 38 C1 50.21 1 62.42 1 75 C0.67 75 0.34 75 0 75 C0 62.79 0 50.58 0 38 C-11.22 38 -22.44 38 -34 38 C-34 37.67 -34 37.34 -34 37 C-22.78 37 -11.56 37 0 37 C0 24.79 0 12.58 0 0 Z " fill="#895D80" transform="translate(592,379)"/>
<path d="M0 0 C0.33 0 0.66 0 1 0 C1 11.22 1 22.44 1 34 C12.22 34 23.44 34 35 34 C35 34.33 35 34.66 35 35 C23.78 35 12.56 35 1 35 C1 46.55 1 58.1 1 70 C-10.22 70 -21.44 70 -33 70 C-33 81.22 -33 92.44 -33 104 C-33.33 104 -33.66 104 -34 104 C-34 92.45 -34 80.9 -34 69 C-22.78 69 -11.56 69 0 69 C0 57.78 0 46.56 0 35 C-11.22 35 -22.44 35 -34 35 C-34 34.67 -34 34.34 -34 34 C-22.78 34 -11.56 34 0 34 C0 22.78 0 11.56 0 0 Z " fill="#91718C" transform="translate(730,691)"/>
<path d="M0 0 C0.33 0 0.66 0 1 0 C1 11.22 1 22.44 1 34 C11.89 34 22.78 34 34 34 C34 22.78 34 11.56 34 0 C34.33 0 34.66 0 35 0 C35 11.55 35 23.1 35 35 C23.78 35 12.56 35 1 35 C1 46.22 1 57.44 1 69 C0.67 69 0.34 69 0 69 C0 57.78 0 46.56 0 35 C-11.22 35 -22.44 35 -34 35 C-34 34.67 -34 34.34 -34 34 C-22.78 34 -11.56 34 0 34 C0 22.78 0 11.56 0 0 Z " fill="#704E70" transform="translate(799,622)"/>
<path d="M0 0 C32.34 0 64.68 0 98 0 C98 0.33 98 0.66 98 1 C96.24020309 1.01213028 96.24020309 1.01213028 94.44485474 1.02450562 C83.40827062 1.10186749 72.3718113 1.18958123 61.33539009 1.28752708 C55.66095568 1.33755112 49.98654044 1.38388047 44.31201172 1.421875 C38.83953127 1.45865082 33.36720894 1.50498944 27.89486313 1.55806351 C25.80322915 1.57664854 23.71156123 1.59174117 21.61987686 1.60334396 C18.69840423 1.62013632 15.777297 1.64915387 12.85595703 1.68115234 C11.98417816 1.68331253 11.11239929 1.68547272 10.21420288 1.68769836 C5.62908513 1.54615078 5.62908513 1.54615078 2 4 C1.73925959 5.93558443 1.73925959 5.93558443 1.83984375 8.1484375 C1.85144531 8.98407227 1.86304688 9.81970703 1.875 10.68066406 C1.895625 11.56979492 1.91625 12.45892578 1.9375 13.375 C2.03557797 20.97876719 1.86119431 28.43379288 1 36 C0.67 36 0.34 36 0 36 C0 24.12 0 12.24 0 0 Z " fill="#FD99B9" transform="translate(697,380)"/>
<path d="M0 0 C0.33 0 0.66 0 1 0 C1 11.22 1 22.44 1 34 C12.22 34 23.44 34 35 34 C35 34.33 35 34.66 35 35 C23.78 35 12.56 35 1 35 C1 46.22 1 57.44 1 69 C0.67 69 0.34 69 0 69 C0 57.78 0 46.56 0 35 C-11.22 35 -22.44 35 -34 35 C-34 34.67 -34 34.34 -34 34 C-22.78 34 -11.56 34 0 34 C0 22.78 0 11.56 0 0 Z " fill="#855C7C" transform="translate(523,691)"/>
<path d="M0 0 C0.33 0 0.66 0 1 0 C1 11.22 1 22.44 1 34 C12.22 34 23.44 34 35 34 C35 34.33 35 34.66 35 35 C23.78 35 12.56 35 1 35 C1 46.22 1 57.44 1 69 C0.67 69 0.34 69 0 69 C0 57.78 0 46.56 0 35 C-11.22 35 -22.44 35 -34 35 C-34 34.67 -34 34.34 -34 34 C-22.78 34 -11.56 34 0 34 C0 22.78 0 11.56 0 0 Z " fill="#845C7E" transform="translate(454,622)"/>
<path d="M0 0 C0.33 0 0.66 0 1 0 C1 11.22 1 22.44 1 34 C-10.22 34 -21.44 34 -33 34 C-32.67 33.34 -32.34 32.68 -32 32 C-21.77 32 -11.54 32 -1 32 C-1.0393684 24.08773304 -1.0393684 24.08773304 -1.09008789 16.17553711 C-1.10385905 10.67462701 -0.99813085 5.41505637 0 0 Z " fill="#1F0E35" transform="translate(557,726)"/>
<path d="M0 0 C0.33 0 0.66 0 1 0 C1.33 10.56 1.66 21.12 2 32 C12.23 32 22.46 32 33 32 C33 32.66 33 33.32 33 34 C22.11 34 11.22 34 0 34 C0 22.78 0 11.56 0 0 Z " fill="#251036" transform="translate(696,726)"/>
<path d="M0 0 C3.3 0 6.6 0 10 0 C10 10.23 10 20.46 10 31 C9.34 31 8.68 31 8 31 C8 21.76 8 12.52 8 3 C5.36 2.34 2.72 1.68 0 1 C0 0.67 0 0.34 0 0 Z " fill="#0E0723" transform="translate(789,657)"/>
<path d="M0 0 C0.99 0.33 1.98 0.66 3 1 C3.1875 3.8125 3.1875 3.8125 3 7 C2.01 7.99 1.02 8.98 0 10 C0 6.7 0 3.4 0 0 Z " fill="#F5F3F4" transform="translate(558,353)"/>
<path d="M0 0 C2.64 0 5.28 0 8 0 C7.13375 0.37125 7.13375 0.37125 6.25 0.75 C3.6997003 2.16683317 1.98214299 3.87627537 0 6 C0 4.02 0 2.04 0 0 Z " fill="#FBA9C6" transform="translate(697,380)"/>
</svg>
