<?xml version="1.0" encoding="UTF-8"?>
<svg version="1.1" xmlns="http://www.w3.org/2000/svg" width="1254" height="1254">
<path d="M0 0 C413.82 0 827.64 0 1254 0 C1254 413.82 1254 827.64 1254 1254 C840.18 1254 426.36 1254 0 1254 C0 840.18 0 426.36 0 0 Z " fill="#FDFDFD" transform="translate(0,0)"/>
<path d="M0 0 C29.37 0 58.74 0 89 0 C89 22.44 89 44.88 89 68 C80.09 68 71.18 68 62 68 C62 90.11 62 112.22 62 135 C52.76 135 43.52 135 34 135 C34 157.44 34 179.88 34 203 C24.76 203 15.52 203 6 203 C6.00523682 205.05468506 6.01047363 207.10937012 6.01586914 209.22631836 C6.03240672 215.99970199 6.0434719 222.7730865 6.05181217 229.54648495 C6.05704046 233.65494285 6.06413713 237.76338014 6.07543945 241.87182617 C6.08627025 245.83346828 6.09227724 249.79509052 6.09487724 253.75674629 C6.09673114 255.27148311 6.1003511 256.78621879 6.10573006 258.30094719 C6.11294307 260.41541813 6.11399083 262.52980594 6.11352539 264.64428711 C6.115746 265.85007919 6.11796661 267.05587128 6.12025452 268.29820251 C6 271 6 271 5 272 C3.00035018 272.08758003 0.9976389 272.10696576 -1.00390625 272.09765625 C-2.21884766 272.09443359 -3.43378906 272.09121094 -4.68554688 272.08789062 C-6.60463867 272.07532227 -6.60463867 272.07532227 -8.5625 272.0625 C-9.84576172 272.05798828 -11.12902344 272.05347656 -12.45117188 272.04882812 C-15.63416022 272.03699545 -18.81705762 272.02051068 -22 272 C-21.99777939 272.83716049 -21.99555878 273.67432098 -21.99327087 274.53684998 C-21.97326968 282.40967414 -21.95802675 290.28248983 -21.94818783 298.15533352 C-21.94295959 302.20325742 -21.93586301 306.25116041 -21.92456055 310.29907227 C-21.91372957 314.20235971 -21.90772272 318.10562699 -21.90512276 322.0089283 C-21.90326889 323.50133647 -21.899649 324.99374348 -21.89426994 326.48614311 C-21.88705669 328.56948139 -21.88600917 330.65273531 -21.88647461 332.73608398 C-21.884254 333.92411118 -21.88203339 335.11213837 -21.87974548 336.33616638 C-22 339 -22 339 -23 340 C-31.91 340 -40.82 340 -50 340 C-50 362.11 -50 384.22 -50 407 C-58.91 407 -67.82 407 -77 407 C-77 429.11 -77 451.22 -77 474 C-85.91 474 -94.82 474 -104 474 C-104 484.56 -104 495.12 -104 506 C-130.73 506 -157.46 506 -185 506 C-185 484.22 -185 462.44 -185 440 C-176.42 440 -167.84 440 -159 440 C-159 417.89 -159 395.78 -159 373 C-150.09 373 -141.18 373 -132 373 C-132 350.56 -132 328.12 -132 305 C-123.42 305 -114.84 305 -106 305 C-106 282.56 -106 260.12 -106 237 C-97.42 237 -88.84 237 -80 237 C-80 214.56 -80 192.12 -80 169 C-71.42 169 -62.84 169 -54 169 C-54 146.56 -54 124.12 -54 101 C-45.09 101 -36.18 101 -27 101 C-27 78.89 -27 56.78 -27 34 C-18.09 34 -9.18 34 0 34 C0 22.78 0 11.56 0 0 Z " fill="#C2B2E8" transform="translate(683,345)"/>
<path d="M0 0 C32.67 0 65.34 0 99 0 C99 20.46 99 40.92 99 62 C89.1 62 79.2 62 69 62 C69 72.56 69 83.12 69 94 C57.78 94 46.56 94 35 94 C35 104.23 35 114.46 35 125 C23.45 125 11.9 125 0 125 C0 135.89 0 146.78 0 158 C-10.23 158 -20.46 158 -31 158 C-31 169.55 -31 181.1 -31 193 C-20.77 193 -10.54 193 0 193 C0 203.23 0 213.46 0 224 C10.56 224 21.12 224 32 224 C32 233.9 32 243.8 32 254 C42.23 254 52.46 254 63 254 C63 264.23 63 274.46 63 285 C71.58 285 80.16 285 89 285 C89 305.13 89 325.26 89 346 C59.63 346 30.26 346 0 346 C0 336.1 0 326.2 0 316 C-10.56 316 -21.12 316 -32 316 C-32 305.77 -32 295.54 -32 285 C-42.56 285 -53.12 285 -64 285 C-64 275.1 -64 265.2 -64 255 C-74.56 255 -85.12 255 -96 255 C-96 244.77 -96 234.54 -96 224 C-106.89 224 -117.78 224 -129 224 C-129 214.43 -129 204.86 -129 195 C-137.91 195 -146.82 195 -156 195 C-156 181.47 -156 167.94 -156 154 C-147.42 154 -138.84 154 -130 154 C-130 144.43 -130 134.86 -130 125 C-119.44 125 -108.88 125 -98 125 C-98 114.44 -98 103.88 -98 93 C-87.44 93 -76.88 93 -66 93 C-66 82.77 -66 72.54 -66 62 C-55.11 62 -44.22 62 -33 62 C-33 51.44 -33 40.88 -33 30 C-22.11 30 -11.22 30 0 30 C0 20.1 0 10.2 0 0 Z " fill="#C6B6EC" transform="translate(406,427)"/>
<path d="M0 0 C29.04 0 58.08 0 88 0 C88 10.23 88 20.46 88 31 C90.44277344 30.98839844 92.88554688 30.97679687 95.40234375 30.96484375 C97.75870636 30.95705316 100.11506756 30.95097641 102.47143555 30.94506836 C104.11369464 30.94002826 105.75594923 30.93319622 107.39819336 30.92456055 C109.75375479 30.91248074 112.10925709 30.90676861 114.46484375 30.90234375 C115.20339096 30.89718246 115.94193817 30.89202118 116.7028656 30.88670349 C118.46898088 30.8865075 120.23497146 30.93805281 122 31 C123 32 123 32 123.11352539 34.95922852 C123.10567017 36.89946899 123.10567017 36.89946899 123.09765625 38.87890625 C123.09515869 40.13517822 123.09266113 41.3914502 123.09008789 42.68579102 C123.08098389 44.29510498 123.07187988 45.90441895 123.0625 47.5625 C123.041875 52.656875 123.02125 57.75125 123 63 C133.23 63 143.46 63 154 63 C154 73.23 154 83.46 154 94 C164.23 94 174.46 94 185 94 C185 104.56 185 115.12 185 126 C195.23 126 205.46 126 216 126 C216 135.57 216 145.14 216 155 C225.57 155 235.14 155 245 155 C245 168.2 245 181.4 245 195 C235.43 195 225.86 195 216 195 C216 204.24 216 213.48 216 223 C205.77 223 195.54 223 185 223 C185 233.23 185 243.46 185 254 C174.77 254 164.54 254 154 254 C154 264.56 154 275.12 154 286 C143.77 286 133.54 286 123 286 C123 296.23 123 306.46 123 317 C112.44 317 101.88 317 91 317 C91 326.9 91 336.8 91 347 C60.97 347 30.94 347 0 347 C0 326.54 0 306.08 0 285 C9.9 285 19.8 285 30 285 C30 274.77 30 264.54 30 254 C39.9 254 49.8 254 60 254 C60 243.44 60 232.88 60 222 C70.23 222 80.46 222 91 222 C91 211.44 91 200.88 91 190 C101.23 190 111.46 190 122 190 C122 179.44 122 168.88 122 158 C111.77 158 101.54 158 91 158 C91 147.44 91 136.88 91 126 C80.77 126 70.54 126 60 126 C60 115.77 60 105.54 60 95 C49.77 95 39.54 95 29 95 C29 84.77 29 74.54 29 64 C19.43 64 9.86 64 0 64 C0 42.88 0 21.76 0 0 Z " fill="#C7B7EE" transform="translate(789,426)"/>
<path d="M0 0 C29.04 0 58.08 0 88 0 C88 10.23 88 20.46 88 31 C90.44277344 30.98839844 92.88554688 30.97679687 95.40234375 30.96484375 C97.75870636 30.95705316 100.11506756 30.95097641 102.47143555 30.94506836 C104.11369464 30.94002826 105.75594923 30.93319622 107.39819336 30.92456055 C109.75375479 30.91248074 112.10925709 30.90676861 114.46484375 30.90234375 C115.20339096 30.89718246 115.94193817 30.89202118 116.7028656 30.88670349 C118.46898088 30.8865075 120.23497146 30.93805281 122 31 C123 32 123 32 123.11352539 34.95922852 C123.10567017 36.89946899 123.10567017 36.89946899 123.09765625 38.87890625 C123.09515869 40.13517822 123.09266113 41.3914502 123.09008789 42.68579102 C123.08098389 44.29510498 123.07187988 45.90441895 123.0625 47.5625 C123.041875 52.656875 123.02125 57.75125 123 63 C133.23 63 143.46 63 154 63 C154 73.23 154 83.46 154 94 C164.23 94 174.46 94 185 94 C185 104.56 185 115.12 185 126 C195.23 126 205.46 126 216 126 C216 135.57 216 145.14 216 155 C225.57 155 235.14 155 245 155 C245 168.2 245 181.4 245 195 C235.43 195 225.86 195 216 195 C216 204.24 216 213.48 216 223 C205.77 223 195.54 223 185 223 C185 233.23 185 243.46 185 254 C174.77 254 164.54 254 154 254 C154 264.56 154 275.12 154 286 C143.77 286 133.54 286 123 286 C123 296.23 123 306.46 123 317 C112.44 317 101.88 317 91 317 C91 306.44 91 295.88 91 285 C101.23 285 111.46 285 122 285 C122 274.77 122 264.54 122 254 C132.23 254 142.46 254 153 254 C153 243.44 153 232.88 153 222 C163.23 222 173.46 222 184 222 C183.96040178 211.84286908 183.96040178 211.84286908 183.90991211 201.68579102 C183.90616577 199.80138306 183.90616577 199.80138306 183.90234375 197.87890625 C183.89710693 196.5854126 183.89187012 195.29191895 183.88647461 193.95922852 C184 191 184 191 185 190 C186.99964982 189.91241997 189.0023611 189.89303424 191.00390625 189.90234375 C192.09775635 189.90484131 193.19160645 189.90733887 194.31860352 189.90991211 C195.71908936 189.91901611 197.1195752 189.92812012 198.5625 189.9375 C202.996875 189.958125 207.43125 189.97875 212 190 C212 179.44 212 168.88 212 158 C202.76 158 193.52 158 184 158 C184 147.44 184 136.88 184 126 C173.77 126 163.54 126 153 126 C153 115.77 153 105.54 153 95 C142.77 95 132.54 95 122 95 C122 84.44 122 73.88 122 63 C110.78 63 99.56 63 88 63 C88 52.77 88 42.54 88 32 C68.53 32 49.06 32 29 32 C29 42.23 29 52.46 29 63 C19.43 63 9.86 63 0 63 C0 42.21 0 21.42 0 0 Z " fill="#120939" transform="translate(789,426)"/>
<path d="M0 0 C10.56 0 21.12 0 32 0 C32 10.56 32 21.12 32 32 C41.9 32 51.8 32 62 32 C62 42.56 62 53.12 62 64 C52.1 64 42.2 64 32 64 C32 74.89 32 85.78 32 97 C21.77 97 11.54 97 1 97 C1 107.23 1 117.46 1 128 C-9.23 128 -19.46 128 -30 128 C-29.96040178 138.15713092 -29.96040178 138.15713092 -29.90991211 148.31420898 C-29.90741455 149.57048096 -29.90491699 150.82675293 -29.90234375 152.12109375 C-29.89710693 153.4145874 -29.89187012 154.70808105 -29.88647461 156.04077148 C-30 159 -30 159 -31 160 C-33.21855264 160.08783542 -35.43988496 160.10694609 -37.66015625 160.09765625 C-38.87582275 160.09515869 -40.09148926 160.09266113 -41.34399414 160.09008789 C-42.90110107 160.08098389 -44.45820801 160.07187988 -46.0625 160.0625 C-50.991875 160.041875 -55.92125 160.02125 -61 160 C-61 170.23 -61 180.46 -61 191 C-40.87 191 -20.74 191 0 191 C0 200.9 0 210.8 0 221 C-30.03 221 -60.06 221 -91 221 C-91 200.54 -91 180.08 -91 159 C-81.1 159 -71.2 159 -61 159 C-61 148.77 -61 138.54 -61 128 C-51.1 128 -41.2 128 -31 128 C-31 117.44 -31 106.88 -31 96 C-20.77 96 -10.54 96 0 96 C0 85.44 0 74.88 0 64 C10.23 64 20.46 64 31 64 C31 53.44 31 42.88 31 32 C20.77 32 10.54 32 0 32 C0 21.44 0 10.88 0 0 Z " fill="#12083A" transform="translate(880,552)"/>
<path d="M0 0 C9.57 0 19.14 0 29 0 C29 22.11 29 44.22 29 67 C19.76 67 10.52 67 1 67 C1 89.44 1 111.88 1 135 C-7.91 135 -16.82 135 -26 135 C-26 157.11 -26 179.22 -26 202 C-34.91 202 -43.82 202 -53 202 C-53 179.89 -53 157.78 -53 135 C-44.42 135 -35.84 135 -27 135 C-27 112.56 -27 90.12 -27 67 C-18.09 67 -9.18 67 0 67 C0 44.89 0 22.78 0 0 Z " fill="#120839" transform="translate(656,379)"/>
<path d="M0 0 C10.56 0 21.12 0 32 0 C32 9.9 32 19.8 32 30 C42.23 30 52.46 30 63 30 C63 40.23 63 50.46 63 61 C71.58 61 80.16 61 89 61 C89 81.13 89 101.26 89 122 C59.96 122 30.92 122 1 122 C1 112.1 1 102.2 1 92 C21.13 92 41.26 92 62 92 C62 81.77 62 71.54 62 61 C51.77 61 41.54 61 31 61 C31 51.1 31 41.2 31 31 C20.77 31 10.54 31 0 31 C0 20.77 0 10.54 0 0 Z " fill="#110738" transform="translate(406,651)"/>
<path d="M0 0 C32.67 0 65.34 0 99 0 C99 20.46 99 40.92 99 62 C89.1 62 79.2 62 69 62 C69 51.44 69 40.88 69 30 C46.23 30 23.46 30 0 30 C0 20.1 0 10.2 0 0 Z " fill="#0F0537" transform="translate(406,427)"/>
<path d="M0 0 C9.57 0 19.14 0 29 0 C29 21.78 29 43.56 29 66 C19.76 66 10.52 66 1 66 C1 88.44 1 110.88 1 134 C-8.57 134 -18.14 134 -28 134 C-28 111.89 -28 89.78 -28 67 C-18.76 67 -9.52 67 0 67 C0 44.89 0 22.78 0 0 Z " fill="#11083A" transform="translate(716,414)"/>
<path d="M0 0 C29.04 0 58.08 0 88 0 C88 21.78 88 43.56 88 66 C78.76 66 69.52 66 60 66 C60 54.78 60 43.56 60 32 C40.2 32 20.4 32 0 32 C0 21.44 0 10.88 0 0 Z " fill="#100637" transform="translate(683,346)"/>
<path d="M0 0 C9.24 0 18.48 0 28 0 C28 22.11 28 44.22 28 67 C19.09 67 10.18 67 1 67 C1 88.78 1 110.56 1 133 C-7.91 133 -16.82 133 -26 133 C-26 111.22 -26 89.44 -26 67 C-17.42 67 -8.84 67 0 67 C0 44.89 0 22.78 0 0 Z " fill="#110738" transform="translate(604,685)"/>
<path d="M0 0 C28.71 0 57.42 0 87 0 C87 9.9 87 19.8 87 30 C67.86 30 48.72 30 29 30 C29 40.56 29 51.12 29 62 C19.43 62 9.86 62 0 62 C0 41.54 0 21.08 0 0 Z " fill="#100637" transform="translate(789,427)"/>
<path d="M0 0 C29.04 0 58.08 0 88 0 C88 10.23 88 20.46 88 31 C90.44277344 30.98839844 92.88554688 30.97679687 95.40234375 30.96484375 C97.75870636 30.95705316 100.11506756 30.95097641 102.47143555 30.94506836 C104.11369464 30.94002826 105.75594923 30.93319622 107.39819336 30.92456055 C109.75375479 30.91248074 112.10925709 30.90676861 114.46484375 30.90234375 C115.20339096 30.89718246 115.94193817 30.89202118 116.7028656 30.88670349 C118.46898088 30.8865075 120.23497146 30.93805281 122 31 C123 32 123 32 123.11352539 34.95922852 C123.10567017 36.89946899 123.10567017 36.89946899 123.09765625 38.87890625 C123.09515869 40.13517822 123.09266113 41.3914502 123.09008789 42.68579102 C123.08098389 44.29510498 123.07187988 45.90441895 123.0625 47.5625 C123.041875 52.656875 123.02125 57.75125 123 63 C133.23 63 143.46 63 154 63 C154 73.23 154 83.46 154 94 C164.23 94 174.46 94 185 94 C185 114.79 185 135.58 185 157 C194.24 157 203.48 157 213 157 C213 168.22 213 179.44 213 191 C203.76 191 194.52 191 185 191 C185 190.67 185 190.34 185 190 C193.91 190 202.82 190 212 190 C212 179.44 212 168.88 212 158 C202.76 158 193.52 158 184 158 C184 147.44 184 136.88 184 126 C173.77 126 163.54 126 153 126 C153 115.77 153 105.54 153 95 C142.77 95 132.54 95 122 95 C122 84.44 122 73.88 122 63 C110.78 63 99.56 63 88 63 C88 52.77 88 42.54 88 32 C68.53 32 49.06 32 29 32 C29 31.67 29 31.34 29 31 C48.14 31 67.28 31 87 31 C87 21.1 87 11.2 87 1 C58.29 1 29.58 1 0 1 C0 0.67 0 0.34 0 0 Z " fill="#1E1545" transform="translate(789,426)"/>
<path d="M0 0 C8.91 0 17.82 0 27 0 C27 10.89 27 21.78 27 33 C44.49 33 61.98 33 80 33 C80 43.23 80 53.46 80 64 C53.6 64 27.2 64 0 64 C0 42.88 0 21.76 0 0 Z " fill="#0F0536" transform="translate(498,786)"/>
<path d="M0 0 C10.23 0 20.46 0 31 0 C31 9.57 31 19.14 31 29 C22.09 29 13.18 29 4 29 C4 41.87 4 54.74 4 68 C13.24 68 22.48 68 32 68 C32 77.57 32 87.14 32 97 C21.77 97 11.54 97 1 97 C1 87.76 1 78.52 1 69 C-8.24 69 -17.48 69 -27 69 C-27 55.47 -27 41.94 -27 28 C-18.09 28 -9.18 28 0 28 C0 18.76 0 9.52 0 0 Z " fill="#100637" transform="translate(277,553)"/>
<path d="M0 0 C11.22 0 22.44 0 34 0 C34 10.56 34 21.12 34 32 C22.78 32 11.56 32 0 32 C0 42.23 0 52.46 0 63 C-11.55 63 -23.1 63 -35 63 C-35 52.44 -35 41.88 -35 31 C-23.45 31 -11.9 31 0 31 C0 20.77 0 10.54 0 0 Z " fill="#1A1041" transform="translate(441,489)"/>
<path d="M0 0 C10.89 0 21.78 0 33 0 C33 10.23 33 20.46 33 31 C17.16 31.495 17.16 31.495 1 32 C0.67 41.9 0.34 51.8 0 62 C-10.56 62 -21.12 62 -32 62 C-32 51.77 -32 41.54 -32 31 C-21.44 31 -10.88 31 0 31 C0 20.77 0 10.54 0 0 Z " fill="#110737" transform="translate(373,458)"/>
<path d="M0 0 C9.24 0 18.48 0 28 0 C28 22.11 28 44.22 28 67 C18.76 67 9.52 67 0 67 C0 44.89 0 22.78 0 0 Z " fill="#100638" transform="translate(632,617)"/>
<path d="M0 0 C9.24 0 18.48 0 28 0 C28 22.11 28 44.22 28 67 C18.76 67 9.52 67 0 67 C0 44.89 0 22.78 0 0 Z " fill="#100638" transform="translate(660,549)"/>
<path d="M0 0 C8.91 0 17.82 0 27 0 C27 21.78 27 43.56 27 66 C18.09 66 9.18 66 0 66 C0 44.22 0 22.44 0 0 Z " fill="#100637" transform="translate(551,651)"/>
<path d="M0 0 C8.58 0 17.16 0 26 0 C26 21.78 26 43.56 26 66 C17.42 66 8.84 66 0 66 C0 44.22 0 22.44 0 0 Z " fill="#110639" transform="translate(577,582)"/>
<path d="M0 0 C8.58 0 17.16 0 26 0 C26 21.45 26 42.9 26 65 C17.42 65 8.84 65 0 65 C0 43.55 0 22.1 0 0 Z " fill="#0F0537" transform="translate(525,719)"/>
<path d="M0 0 C10.23 0 20.46 0 31 0 C31 11.55 31 23.1 31 35 C20.77 35 10.54 35 0 35 C0 23.45 0 11.9 0 0 Z " fill="#100537" transform="translate(343,585)"/>
<path d="M0 0 C10.56 0 21.12 0 32 0 C32 10.56 32 21.12 32 32 C21.44 32 10.88 32 0 32 C0 21.44 0 10.88 0 0 Z " fill="#120838" transform="translate(374,552)"/>
<path d="M0 0 C10.56 0 21.12 0 32 0 C32 10.23 32 20.46 32 31 C21.44 31 10.88 31 0 31 C0 20.77 0 10.54 0 0 Z " fill="#0F0637" transform="translate(309,521)"/>
<path d="M0 0 C10.89 0 21.78 0 33 0 C33 9.9 33 19.8 33 30 C22.11 30 11.22 30 0 30 C0 20.1 0 10.2 0 0 Z " fill="#100538" transform="translate(407,521)"/>
<path d="M0 0 C10.56 0 21.12 0 32 0 C32 9.9 32 19.8 32 30 C21.44 30 10.88 30 0 30 C0 20.1 0 10.2 0 0 Z " fill="#12083A" transform="translate(310,651)"/>
<path d="M0 0 C10.23 0 20.46 0 31 0 C31 9.9 31 19.8 31 30 C20.77 30 10.54 30 0 30 C0 20.1 0 10.2 0 0 Z " fill="#0F0535" transform="translate(375,712)"/>
<path d="M0 0 C10.23 0 20.46 0 31 0 C31 9.9 31 19.8 31 30 C20.77 30 10.54 30 0 30 C0 20.1 0 10.2 0 0 Z " fill="#110737" transform="translate(343,681)"/>
<path d="M0 0 C9.9 0 19.8 0 30 0 C30 10.23 30 20.46 30 31 C20.1 31 10.2 31 0 31 C0 20.77 0 10.54 0 0 Z " fill="#100638" transform="translate(850,649)"/>
<path d="M0 0 C10.23 0 20.46 0 31 0 C31 9.9 31 19.8 31 30 C20.77 30 10.54 30 0 30 C0 20.1 0 10.2 0 0 Z " fill="#100637" transform="translate(375,621)"/>
<path d="M0 0 C9.9 0 19.8 0 30 0 C30 10.23 30 20.46 30 31 C20.1 31 10.2 31 0 31 C0 20.77 0 10.54 0 0 Z " fill="#0F0536" transform="translate(881,617)"/>
<path d="M0 0 C9.9 0 19.8 0 30 0 C30 10.23 30 20.46 30 31 C20.1 31 10.2 31 0 31 C0 20.77 0 10.54 0 0 Z " fill="#100638" transform="translate(943,521)"/>
<path d="M0 0 C9.9 0 19.8 0 30 0 C30 10.23 30 20.46 30 31 C20.1 31 10.2 31 0 31 C0 20.77 0 10.54 0 0 Z " fill="#110738" transform="translate(850,521)"/>
<path d="M0 0 C9.9 0 19.8 0 30 0 C30 10.23 30 20.46 30 31 C20.1 31 10.2 31 0 31 C0 20.77 0 10.54 0 0 Z " fill="#110738" transform="translate(819,489)"/>
<path d="M0 0 C9.9 0 19.8 0 30 0 C30 9.9 30 19.8 30 30 C20.1 30.33 10.2 30.66 0 31 C0 20.77 0 10.54 0 0 Z " fill="#100638" transform="translate(943,649)"/>
<path d="M0 0 C9.9 0 19.8 0 30 0 C30 9.9 30 19.8 30 30 C20.1 30 10.2 30 0 30 C0 20.1 0 10.2 0 0 Z " fill="#0F0637" transform="translate(881,712)"/>
<path d="M0 0 C9.9 0 19.8 0 30 0 C30 9.9 30 19.8 30 30 C20.1 30 10.2 30 0 30 C0 20.1 0 10.2 0 0 Z " fill="#0F0537" transform="translate(881,553)"/>
<path d="M0 0 C9.9 0 19.8 0 30 0 C30 9.9 30 19.8 30 30 C20.1 30 10.2 30 0 30 C0 20.1 0 10.2 0 0 Z " fill="#100637" transform="translate(912,490)"/>
<path d="M0 0 C9.9 0 19.8 0 30 0 C30.020625 4.764375 30.04125 9.52875 30.0625 14.4375 C30.071604 15.9423999 30.08070801 17.4472998 30.09008789 18.99780273 C30.09258545 20.17286377 30.09508301 21.3479248 30.09765625 22.55859375 C30.10551147 24.37315063 30.10551147 24.37315063 30.11352539 26.22436523 C30 29 30 29 29 30 C26.85441173 30.08775605 24.70595579 30.10695219 22.55859375 30.09765625 C21.38353271 30.09515869 20.20847168 30.09266113 18.99780273 30.09008789 C17.49290283 30.08098389 15.98800293 30.07187988 14.4375 30.0625 C9.673125 30.041875 4.90875 30.02125 0 30 C0 20.1 0 10.2 0 0 Z " fill="#0F0537" transform="translate(974,553)"/>
<path d="M0 0 C0.33 0 0.66 0 1 0 C1.33 10.56 1.66 21.12 2 32 C11.24 32 20.48 32 30 32 C30 41.57 30 51.14 30 61 C20.1 61 10.2 61 0 61 C0 51.1 0 41.2 0 31 C-10.23 31 -20.46 31 -31 31 C-31 30.67 -31 30.34 -31 30 C-20.77 30 -10.54 30 0 30 C0 20.1 0 10.2 0 0 Z " fill="#1E1345" transform="translate(437,651)"/>
<path d="M0 0 C10.56 0 21.12 0 32 0 C32 32.01 32 64.02 32 97 C21.77 97 11.54 97 1 97 C1 107.23 1 117.46 1 128 C0.67 128 0.34 128 0 128 C0 117.77 0 107.54 0 97 C-9.9 97 -19.8 97 -30 97 C-30 117.46 -30 137.92 -30 159 C-30.33 159 -30.66 159 -31 159 C-31 138.21 -31 117.42 -31 96 C-20.77 96 -10.54 96 0 96 C0 85.44 0 74.88 0 64 C10.23 64 20.46 64 31 64 C31 53.44 31 42.88 31 32 C20.77 32 10.54 32 0 32 C0 21.44 0 10.88 0 0 Z M1 1 C1 10.9 1 20.8 1 31 C10.9 31 20.8 31 31 31 C31 21.1 31 11.2 31 1 C21.1 1 11.2 1 1 1 Z M1 65 C1 75.23 1 85.46 1 96 C10.9 96 20.8 96 31 96 C31 85.77 31 75.54 31 65 C21.1 65 11.2 65 1 65 Z " fill="#665D89" transform="translate(880,552)"/>
<path d="M0 0 C0.33 0 0.66 0 1 0 C1 10.23 1 20.46 1 31 C11.23 31 21.46 31 32 31 C32 31.33 32 31.66 32 32 C21.77 32 11.54 32 1 32 C1 42.23 1 52.46 1 63 C-8.9 63 -18.8 63 -29 63 C-29 62.67 -29 62.34 -29 62 C-19.43 62 -9.86 62 0 62 C0 52.1 0 42.2 0 32 C-9.9 32 -19.8 32 -30 32 C-30 52.79 -30 73.58 -30 95 C-40.23 95 -50.46 95 -61 95 C-61 105.23 -61 115.46 -61 126 C-71.56 126 -82.12 126 -93 126 C-93 115.44 -93 104.88 -93 94 C-72.54 94 -52.08 94 -31 94 C-31 73.21 -31 52.42 -31 31 C-20.77 31 -10.54 31 0 31 C0 20.77 0 10.54 0 0 Z M-92 95 C-92 104.9 -92 114.8 -92 125 C-82.1 125 -72.2 125 -62 125 C-62 115.1 -62 105.2 -62 95 C-71.9 95 -81.8 95 -92 95 Z " fill="#585279" transform="translate(973,617)"/>
<path d="M0 0 C0.33 0 0.66 0 1 0 C1 19.8 1 39.6 1 60 C11.23 60 21.46 60 32 60 C32 50.1 32 40.2 32 30 C32.33 30 32.66 30 33 30 C33 39.9 33 49.8 33 60 C43.23 60 53.46 60 64 60 C64 60.33 64 60.66 64 61 C53.77 61 43.54 61 33 61 C33 70.9 33 80.8 33 91 C63.36 91 93.72 91 125 91 C125 81.1 125 71.2 125 61 C125.33 61 125.66 61 126 61 C126 71.23 126 81.46 126 92 C105.87 92 85.74 92 65 92 C65 101.9 65 111.8 65 122 C64.67 122 64.34 122 64 122 C64 112.1 64 102.2 64 92 C53.44 92 42.88 92 32 92 C32 81.77 32 71.54 32 61 C21.44 61 10.88 61 0 61 C0 51.1 0 41.2 0 31 C-10.56 31 -21.12 31 -32 31 C-32 30.67 -32 30.34 -32 30 C-21.44 30 -10.88 30 0 30 C0 20.1 0 10.2 0 0 Z " fill="#786F99" transform="translate(342,651)"/>
<path d="M0 0 C0.33 0 0.66 0 1 0 C1 10.23 1 20.46 1 31 C11.23 31 21.46 31 32 31 C32 41.23 32 51.46 32 62 C42.23 62 52.46 62 63 62 C63 82.79 63 103.58 63 125 C72.24 125 81.48 125 91 125 C91 136.22 91 147.44 91 159 C81.76 159 72.52 159 63 159 C63 158.67 63 158.34 63 158 C71.91 158 80.82 158 90 158 C90 147.44 90 136.88 90 126 C80.76 126 71.52 126 62 126 C62 105.21 62 84.42 62 63 C52.1 63 42.2 63 32 63 C32 73.23 32 83.46 32 94 C31.67 94 31.34 94 31 94 C31 83.77 31 73.54 31 63 C20.77 63 10.54 63 0 63 C0 42.21 0 21.42 0 0 Z M1 32 C1 41.9 1 51.8 1 62 C10.9 62 20.8 62 31 62 C31 52.1 31 42.2 31 32 C21.1 32 11.2 32 1 32 Z " fill="#665E88" transform="translate(911,458)"/>
<path d="M0 0 C33.66 0 67.32 0 102 0 C102 0.33 102 0.66 102 1 C79.89 1 57.78 1 35 1 C35 11.56 35 22.12 35 33 C32.57609961 35.42390039 26.78077885 34.17322421 23.39453125 34.18554688 C22.34386475 34.18542603 22.34386475 34.18542603 21.27197266 34.18530273 C19.14074585 34.18748389 17.010041 34.20562102 14.87890625 34.22460938 C13.52604344 34.22754433 12.17317817 34.22952844 10.8203125 34.23046875 C9.58555176 34.23457764 8.35079102 34.23868652 7.07861328 34.24291992 C4 34 4 34 1 32 C11.56 32 22.12 32 33 32 C33 21.77 33 11.54 33 1 C22.11 1 11.22 1 0 1 C0 0.67 0 0.34 0 0 Z " fill="#9589BA" transform="translate(373,457)"/>
<path d="M0 0 C1.11696762 0.00222061 2.23393524 0.00444122 3.38475037 0.00672913 C4.64598221 0.00680466 5.90721405 0.00688019 7.20666504 0.00695801 C8.59341979 0.01206542 9.98017414 0.01728142 11.3669281 0.02259827 C12.77797394 0.0244625 14.18902042 0.02588638 15.60006714 0.02688599 C19.3204272 0.03071072 23.04074845 0.04054062 26.76109314 0.05158997 C30.55482966 0.06180504 34.34857243 0.06638381 38.14231873 0.07142639 C45.59090416 0.08216294 53.03945758 0.09923882 60.48802185 0.12025452 C60.48802185 0.45025452 60.48802185 0.78025452 60.48802185 1.12025452 C50.25802185 1.12025452 40.02802185 1.12025452 29.48802185 1.12025452 C29.48802185 12.67025452 29.48802185 24.22025452 29.48802185 36.12025452 C39.71802185 36.12025452 49.94802185 36.12025452 60.48802185 36.12025452 C60.48802185 36.45025452 60.48802185 36.78025452 60.48802185 37.12025452 C50.25802185 37.12025452 40.02802185 37.12025452 29.48802185 37.12025452 C29.48802185 47.02025452 29.48802185 56.92025452 29.48802185 67.12025452 C29.15802185 67.12025452 28.82802185 67.12025452 28.48802185 67.12025452 C28.48802185 57.22025452 28.48802185 47.32025452 28.48802185 37.12025452 C17.92802185 37.12025452 7.36802185 37.12025452 -3.51197815 37.12025452 C-3.53488711 32.01155641 -3.55481416 26.90303526 -3.56690979 21.79432678 C-3.57195019 20.05506284 -3.57878245 18.31580316 -3.5874176 16.57655334 C-3.59949607 14.08199515 -3.60520923 11.58749278 -3.6096344 9.09291077 C-3.61479568 8.310616 -3.61995697 7.52832123 -3.62527466 6.72232056 C-3.62547041 4.85458337 -3.57397509 2.98696248 -3.51197815 1.12025452 C-2.51197815 0.12025452 -2.51197815 0.12025452 0 0 Z M-2.51197815 1.12025452 C-2.51197815 12.67025452 -2.51197815 24.22025452 -2.51197815 36.12025452 C7.71802185 36.12025452 17.94802185 36.12025452 28.48802185 36.12025452 C28.48802185 24.57025452 28.48802185 13.02025452 28.48802185 1.12025452 C18.25802185 1.12025452 8.02802185 1.12025452 -2.51197815 1.12025452 Z " fill="#78709A" transform="translate(345.51197814941406,583.8797454833984)"/>
<path d="M0 0 C8.58 0 17.16 0 26 0 C26 0.66 26 1.32 26 2 C18.08 2 10.16 2 2 2 C2 22.79 2 43.58 2 65 C9.92 65 17.84 65 26 65 C26 65.33 26 65.66 26 66 C17.42 66 8.84 66 0 66 C0 44.22 0 22.44 0 0 Z " fill="#1D183F" transform="translate(577,582)"/>
<path d="M0 0 C0.33 0 0.66 0 1 0 C1 9.24 1 18.48 1 28 C9.58 27.67 18.16 27.34 27 27 C27 26.01 27 25.02 27 24 C27.66 24 28.32 24 29 24 C28.86076462 20.74968216 28.71245815 17.49983939 28.5625 14.25 C28.52318359 13.32960938 28.48386719 12.40921875 28.44335938 11.4609375 C28.40146484 10.57148437 28.35957031 9.68203125 28.31640625 8.765625 C28.27974854 7.94868164 28.24309082 7.13173828 28.20532227 6.29003906 C28.00865725 4.0965577 27.59699406 2.11603587 27 0 C28.32 0 29.64 0 31 0 C31 9.57 31 19.14 31 29 C20.77 29 10.54 29 0 29 C0 19.43 0 9.86 0 0 Z " fill="#08022C" transform="translate(311,652)"/>
<path d="M0 0 C0.33 0 0.66 0 1 0 C1 10.23 1 20.46 1 31 C10.9 31 20.8 31 31 31 C31 31.33 31 31.66 31 32 C21.1 32 11.2 32 1 32 C1 42.23 1 52.46 1 63 C0.67 63 0.34 63 0 63 C0 52.77 0 42.54 0 32 C-9.9 32 -19.8 32 -30 32 C-30 31.67 -30 31.34 -30 31 C-20.1 31 -10.2 31 0 31 C0 20.77 0 10.54 0 0 Z " fill="#756C96" transform="translate(849,489)"/>
<path d="M0 0 C1.32 0.33 2.64 0.66 4 1 C3.01 2.485 3.01 2.485 2 4 C1.63201307 6.71075544 1.63201307 6.71075544 1.5859375 9.76171875 C1.54726563 10.87998047 1.50859375 11.99824219 1.46875 13.15039062 C1.4378125 14.31763672 1.406875 15.48488281 1.375 16.6875 C1.33632813 17.86634766 1.29765625 19.04519531 1.2578125 20.25976562 C1.16345609 23.17301977 1.07786839 26.08626607 1 29 C0.67 29 0.34 29 0 29 C0 19.43 0 9.86 0 0 Z " fill="#EDECF1" transform="translate(943,682)"/>
<path d="M0 0 C1.65 0 3.3 0 5 0 C5.12910853 6.74233419 4.797837 13.30386804 4 20 C3.67 20 3.34 20 3 20 C3 14.06 3 8.12 3 2 C2.01 2 1.02 2 0 2 C0 1.34 0 0.68 0 0 Z " fill="#CFC2F3" transform="translate(937,521)"/>
<path d="M0 0 C1.9453125 -0.29296875 1.9453125 -0.29296875 4.125 -0.1875 C5.40375 -0.125625 6.6825 -0.06375 8 0 C7.67 0.99 7.34 1.98 7 3 C4.03 3 1.06 3 -2 3 C-1.34 2.01 -0.68 1.02 0 0 Z " fill="#F2F2F5" transform="translate(709,548)"/>
<path d="M0 0 C2.64 0 5.28 0 8 0 C4.25 2 4.25 2 2 2 C1.67 4.31 1.34 6.62 1 9 C0.67 9 0.34 9 0 9 C0 6.03 0 3.06 0 0 Z " fill="#08032E" transform="translate(629,447)"/>
<path d="M0 0 C1.32 0.33 2.64 0.66 4 1 C3.67 1.99 3.34 2.98 3 4 C2.34 4 1.68 4 1 4 C1 6.31 1 8.62 1 11 C0.67 11 0.34 11 0 11 C0 7.37 0 3.74 0 0 Z " fill="#110E2E" transform="translate(656,379)"/>
</svg>
