<?xml version="1.0" encoding="UTF-8"?>
<svg version="1.1" xmlns="http://www.w3.org/2000/svg" width="1254" height="1254">
<path d="M0 0 C175.56 0 351.12 0 532 0 C532 9.9 532 19.8 532 30 C542.23 30 552.46 30 563 30 C563 40.23 563 50.46 563 61 C571.91 61 580.82 61 590 61 C590 182.11 590 303.22 590 428 C580.1 428 570.2 428 560 428 C560 437.9 560 447.8 560 458 C366.29 458 172.58 458 -27 458 C-27 448.1 -27 438.2 -27 428 C-36.9 428 -46.8 428 -57 428 C-57 306.56 -57 185.12 -57 60 C-47.76 60 -38.52 60 -29 60 C-29 50.1 -29 40.2 -29 30 C-19.43 30 -9.86 30 0 30 C0 20.1 0 10.2 0 0 Z " fill="#F7F1FA" transform="translate(360,354)"/>
<path d="M0 0 C8.91 0 17.82 0 27 0 C27 10.23 27 20.46 27 31 C37.56 31 48.12 31 59 31 C59 40.9 59 50.8 59 61 C69.23 61 79.46 61 90 61 C90 71.23 90 81.46 90 92 C100.23 92 110.46 92 121 92 C121 102.23 121 112.46 121 123 C130.9 123 140.8 123 151 123 C151 133.23 151 143.46 151 154 C141.1 154 131.2 154 121 154 C121 163.9 121 173.8 121 184 C131.23 184 141.46 184 152 184 C152 174.1 152 164.2 152 154 C161.9 154 171.8 154 182 154 C182 163.9 182 173.8 182 184 C192.23 184 202.46 184 213 184 C213 194.23 213 204.46 213 215 C223.23 215 233.46 215 244 215 C244 224.9 244 234.8 244 245 C276.01 245 308.02 245 341 245 C341 235.1 341 225.2 341 215 C351.23 215 361.46 215 372 215 C372 204.77 372 194.54 372 184 C382.23 184 392.46 184 403 184 C403 174.1 403 164.2 403 154 C412.9 154 422.8 154 433 154 C433 163.9 433 173.8 433 184 C443.23 184 453.46 184 464 184 C464 174.1 464 164.2 464 154 C454.1 154 444.2 154 434 154 C434 143.77 434 133.54 434 123 C443.9 123 453.8 123 464 123 C464 112.77 464 102.54 464 92 C474.23 92 484.46 92 495 92 C495 81.77 495 71.54 495 61 C505.23 61 515.46 61 526 61 C526 51.1 526 41.2 526 31 C536.23 31 546.46 31 557 31 C557 20.77 557 10.54 557 0 C566.9 0 576.8 0 587 0 C586.67 91.08 586.34 182.16 586 276 C575.77 276 565.54 276 555 276 C555 285.9 555 295.8 555 306 C565.23 306 575.46 306 586 306 C586 315.9 586 325.8 586 336 C392.62 336 199.24 336 0 336 C0 326.1 0 316.2 0 306 C9.9 306 19.8 306 30 306 C30 296.1 30 286.2 30 276 C20.1 276 10.2 276 0 276 C0 184.92 0 93.84 0 0 Z " fill="#F7F2FB" transform="translate(334,445)"/>
<path d="M0 0 C9.57 0 19.14 0 29 0 C29 10.23 29 20.46 29 31 C39.56 31 50.12 31 61 31 C61 40.9 61 50.8 61 61 C71.23 61 81.46 61 92 61 C92 71.23 92 81.46 92 92 C102.23 92 112.46 92 123 92 C123 101.9 123 111.8 123 122 C133.23 122 143.46 122 154 122 C154 132.23 154 142.46 154 153 C164.23 153 174.46 153 185 153 C185 163.23 185 173.46 185 184 C195.23 184 205.46 184 216 184 C216 194.23 216 204.46 216 215 C226.23 215 236.46 215 247 215 C247 224.9 247 234.8 247 245 C257.56 245 268.12 245 279 245 C279 254.9 279 264.8 279 275 C289.89 275 300.78 275 312 275 C312 265.1 312 255.2 312 245 C322.56 245 333.12 245 344 245 C344 235.1 344 225.2 344 215 C354.23 215 364.46 215 375 215 C375 204.77 375 194.54 375 184 C385.23 184 395.46 184 406 184 C406 173.77 406 163.54 406 153 C416.23 153 426.46 153 437 153 C437 142.77 437 132.54 437 122 C447.23 122 457.46 122 468 122 C468 112.1 468 102.2 468 92 C478.23 92 488.46 92 499 92 C499 81.77 499 71.54 499 61 C509.23 61 519.46 61 530 61 C530 50.77 530 40.54 530 30 C540.23 30 550.46 30 561 30 C561 20.1 561 10.2 561 0 C571.23 0 581.46 0 592 0 C592 10.23 592 20.46 592 31 C600.91 31 609.82 31 619 31 C619 152.11 619 273.22 619 398 C609.1 398 599.2 398 589 398 C589 407.9 589 417.8 589 428 C395.29 428 201.58 428 2 428 C2 418.1 2 408.2 2 398 C-7.9 398 -17.8 398 -28 398 C-28 276.56 -28 155.12 -28 30 C-18.76 30 -9.52 30 0 30 C0 20.1 0 10.2 0 0 Z M3 61 C3 152.08 3 243.16 3 337 C12.9 337 22.8 337 33 337 C33 346.9 33 356.8 33 367 C23.1 367 13.2 367 3 367 C3 376.9 3 386.8 3 397 C196.38 397 389.76 397 589 397 C589 387.1 589 377.2 589 367 C578.77 367 568.54 367 558 367 C558 357.1 558 347.2 558 337 C568.23 337 578.46 337 589 337 C589.495 200.38 589.495 200.38 590 61 C580.1 61 570.2 61 560 61 C560 71.23 560 81.46 560 92 C549.77 92 539.54 92 529 92 C529 101.9 529 111.8 529 122 C518.77 122 508.54 122 498 122 C498 132.23 498 142.46 498 153 C487.77 153 477.54 153 467 153 C467 163.23 467 173.46 467 184 C457.1 184 447.2 184 437 184 C437 194.23 437 204.46 437 215 C446.9 215 456.8 215 467 215 C467 224.9 467 234.8 467 245 C456.77 245 446.54 245 436 245 C436 235.1 436 225.2 436 215 C426.1 215 416.2 215 406 215 C406 224.9 406 234.8 406 245 C395.77 245 385.54 245 375 245 C375 255.23 375 265.46 375 276 C364.77 276 354.54 276 344 276 C344 285.9 344 295.8 344 306 C311.99 306 279.98 306 247 306 C247 296.1 247 286.2 247 276 C236.77 276 226.54 276 216 276 C216 265.77 216 255.54 216 245 C205.77 245 195.54 245 185 245 C185 235.1 185 225.2 185 215 C175.1 215 165.2 215 155 215 C155 224.9 155 234.8 155 245 C144.77 245 134.54 245 124 245 C124 235.1 124 225.2 124 215 C133.9 215 143.8 215 154 215 C154 204.77 154 194.54 154 184 C144.1 184 134.2 184 124 184 C124 173.77 124 163.54 124 153 C113.77 153 103.54 153 93 153 C93 142.77 93 132.54 93 122 C82.77 122 72.54 122 62 122 C62 112.1 62 102.2 62 92 C51.44 92 40.88 92 30 92 C30 81.77 30 71.54 30 61 C21.09 61 12.18 61 3 61 Z " fill="#1A0C3C" transform="translate(331,384)"/>
<path d="M0 0 C9.9 0 19.8 0 30 0 C29.67 91.08 29.34 182.16 29 276 C8.87 276 -11.26 276 -32 276 C-32 265.77 -32 255.54 -32 245 C-42.23 245 -52.46 245 -63 245 C-63 235.1 -63 225.2 -63 215 C-72.9 215 -82.8 215 -93 215 C-93 194.87 -93 174.74 -93 154 C-102.9 154 -112.8 154 -123 154 C-123 143.77 -123 133.54 -123 123 C-113.1 123 -103.2 123 -93 123 C-93 112.77 -93 102.54 -93 92 C-82.77 92 -72.54 92 -62 92 C-62 81.77 -62 71.54 -62 61 C-51.77 61 -41.54 61 -31 61 C-31 51.1 -31 41.2 -31 31 C-20.77 31 -10.54 31 0 31 C0 20.77 0 10.54 0 0 Z " fill="#F6F1FA" transform="translate(891,445)"/>
<path d="M0 0 C8.91 0 17.82 0 27 0 C27 10.23 27 20.46 27 31 C37.56 31 48.12 31 59 31 C59 40.9 59 50.8 59 61 C69.23 61 79.46 61 90 61 C90 71.23 90 81.46 90 92 C100.23 92 110.46 92 121 92 C121 102.23 121 112.46 121 123 C130.9 123 140.8 123 151 123 C151 133.23 151 143.46 151 154 C141.1 154 131.2 154 121 154 C121 163.9 121 173.8 121 184 C130.9 184 140.8 184 151 184 C151 184.33 151 184.66 151 185 C141.43 185 131.86 185 122 185 C122 194.9 122 204.8 122 215 C112.1 215 102.2 215 92 215 C92 224.9 92 234.8 92 245 C81.77 245 71.54 245 61 245 C61 255.23 61 265.46 61 276 C51.1 276 41.2 276 31 276 C31 285.9 31 295.8 31 306 C30.67 306 30.34 306 30 306 C30 296.1 30 286.2 30 276 C20.1 276 10.2 276 0 276 C0 184.92 0 93.84 0 0 Z " fill="#F6F2FA" transform="translate(334,445)"/>
<path d="M0 0 C175.56 0 351.12 0 532 0 C532 9.9 532 19.8 532 30 C356.44 30 180.88 30 0 30 C0 20.1 0 10.2 0 0 Z " fill="#180A39" transform="translate(360,354)"/>
<path d="M0 0 C9.9 0 19.8 0 30 0 C30 9.9 30 19.8 30 30 C40.23 30 50.46 30 61 30 C61 40.23 61 50.46 61 61 C50.77 61 40.54 61 30 61 C30 51.1 30 41.2 30 31 C20.1 31 10.2 31 0 31 C0 20.77 0 10.54 0 0 Z " fill="#1B0C3E" transform="translate(798,629)"/>
<path d="M0 0 C9.24 0 18.48 0 28 0 C28 0.33 28 0.66 28 1 C19.09 1 10.18 1 1 1 C1 121.78 1 242.56 1 367 C10.57 367 20.14 367 30 367 C30 357.1 30 347.2 30 337 C30.33 337 30.66 337 31 337 C31 346.9 31 356.8 31 367 C234.28 367 437.56 367 647 367 C647 367.33 647 367.66 647 368 C637.1 368 627.2 368 617 368 C617 377.9 617 387.8 617 398 C423.29 398 229.58 398 30 398 C30 388.1 30 378.2 30 368 C20.1 368 10.2 368 0 368 C0 246.56 0 125.12 0 0 Z M31 368 C31 377.57 31 387.14 31 397 C224.05 397 417.1 397 616 397 C616 387.43 616 377.86 616 368 C422.95 368 229.9 368 31 368 Z " fill="#645B7D" transform="translate(303,414)"/>
<path d="M0 0 C10.23 0 20.46 0 31 0 C31 9.9 31 19.8 31 30 C20.77 30 10.54 30 0 30 C0 20.1 0 10.2 0 0 Z " fill="#1B0E3B" transform="translate(364,690)"/>
<path d="M0 0 C9.9 0 19.8 0 30 0 C30 9.9 30 19.8 30 30 C20.1 30 10.2 30 0 30 C0 20.1 0 10.2 0 0 Z " fill="#190B39" transform="translate(859,690)"/>
<path d="M0 0 C9.9 0 19.8 0 30 0 C30 9.9 30 19.8 30 30 C20.1 30 10.2 30 0 30 C0 20.1 0 10.2 0 0 Z " fill="#1A0C3D" transform="translate(829,660)"/>
<path d="M0 0 C9.9 0 19.8 0 30 0 C30 9.9 30 19.8 30 30 C20.1 30 10.2 30 0 30 C0 20.1 0 10.2 0 0 Z " fill="#180B3A" transform="translate(395,660)"/>
<path d="M0 0 C9.57 0 19.14 0 29 0 C29 9.57 29 19.14 29 29 C19.43 29 9.86 29 0 29 C0 19.43 0 9.86 0 0 Z " fill="#180A39" transform="translate(426,630)"/>
<path d="M0 0 C9.9 0 19.8 0 30 0 C30 9.9 30 19.8 30 30 C40.23 30 50.46 30 61 30 C61 30.33 61 30.66 61 31 C51.1 31 41.2 31 31 31 C31 40.9 31 50.8 31 61 C30.67 61 30.34 61 30 61 C30 51.1 30 41.2 30 31 C20.1 31 10.2 31 0 31 C0 20.77 0 10.54 0 0 Z M2 2 C2 10.91 2 19.82 2 29 C10.91 29 19.82 29 29 29 C29 20.09 29 11.18 29 2 C20.09 2 11.18 2 2 2 Z " fill="#3C3459" transform="translate(798,629)"/>
<path d="M0 0 C19.8 0 39.6 0 60 0 C60 0.33 60 0.66 60 1 C50.43 1 40.86 1 31 1 C31 10.9 31 20.8 31 31 C21.1 31 11.2 31 1 31 C1 40.9 1 50.8 1 61 C0.67 61 0.34 61 0 61 C0 51.1 0 41.2 0 31 C-9.9 31 -19.8 31 -30 31 C-30 30.67 -30 30.34 -30 30 C-20.1 30 -10.2 30 0 30 C0 20.1 0 10.2 0 0 Z M1 1 C1 10.57 1 20.14 1 30 C10.57 30 20.14 30 30 30 C30 20.43 30 10.86 30 1 C20.43 1 10.86 1 1 1 Z " fill="#87809B" transform="translate(425,629)"/>
<path d="M0 0 C0.33 0 0.66 0 1 0 C1 2.64 1 5.28 1 8 C-1.31 8 -3.62 8 -6 8 C-5.67 7.34 -5.34 6.68 -5 6 C-2.4375 5.375 -2.4375 5.375 0 5 C0 3.35 0 1.7 0 0 Z " fill="#F0EBF5" transform="translate(765,529)"/>
</svg>
