<?xml version="1.0" encoding="UTF-8"?>
<svg version="1.1" xmlns="http://www.w3.org/2000/svg" width="1254" height="1254">
<path d="M0 0 C162.36 0 324.72 0 492 0 C492 9.24 492 18.48 492 28 C500.58 28 509.16 28 518 28 C518 36.58 518 45.16 518 54 C526.25 54 534.5 54 543 54 C543 199.53 543 345.06 543 495 C534.75 495 526.5 495 518 495 C518 503.25 518 511.5 518 520 C509.42 520 500.84 520 492 520 C492 528.58 492 537.16 492 546 C329.64 546 167.28 546 0 546 C0 537.42 0 528.84 0 520 C-8.58 520 -17.16 520 -26 520 C-26 511.75 -26 503.5 -26 495 C-34.25 495 -42.5 495 -51 495 C-51 349.47 -51 203.94 -51 54 C-42.75 54 -34.5 54 -26 54 C-26 45.42 -26 36.84 -26 28 C-17.42 28 -8.84 28 0 28 C0 18.76 0 9.52 0 0 Z " fill="#2F2B59" transform="translate(381,337)"/>
<path d="M0 0 C149.16 0 298.32 0 452 0 C452 114.18 452 228.36 452 346 C302.84 346 153.68 346 0 346 C0 231.82 0 117.64 0 0 Z " fill="#17143B" transform="translate(401,444)"/>
<path d="M0 0 C8.25 0 16.5 0 25 0 C25 145.53 25 291.06 25 441 C16.75 441 8.5 441 0 441 C0 449.25 0 457.5 0 466 C-8.58 466 -17.16 466 -26 466 C-26 474.58 -26 483.16 -26 492 C-188.36 492 -350.72 492 -518 492 C-518 483.42 -518 474.84 -518 466 C-526.25 466 -534.5 466 -543 466 C-543 457.75 -543 449.5 -543 441 C-534.75 441 -526.5 441 -518 441 C-518 442.65 -518 444.3 -518 446 C-355.64 446 -193.28 446 -26 446 C-26 437.42 -26 428.84 -26 420 C-17.75 420 -9.5 420 -1 420 C-0.505 212.1 -0.505 212.1 0 0 Z " fill="#2C2955" transform="translate(899,391)"/>
<path d="M0 0 C162.36 0 324.72 0 492 0 C492 25.74 492 51.48 492 78 C485.73 78 479.46 78 473 78 C473 69.42 473 60.84 473 52 C323.51 52 174.02 52 20 52 C20 60.58 20 69.16 20 78 C13.4 78 6.8 78 0 78 C0 52.26 0 26.52 0 0 Z " fill="#F0EDE3" transform="translate(381,366)"/>
<path d="M0 0 C162.36 0 324.72 0 492 0 C492 9.24 492 18.48 492 28 C500.25 28 508.5 28 517 28 C517 36.58 517 45.16 517 54 C508.75 54 500.5 54 492 54 C492 45.75 492 37.5 492 29 C329.64 29 167.28 29 0 29 C0 37.25 0 45.5 0 54 C-8.25 54 -16.5 54 -25 54 C-25 45.42 -25 36.84 -25 28 C-16.75 28 -8.5 28 0 28 C0 18.76 0 9.52 0 0 Z " fill="#17153B" transform="translate(381,337)"/>
<path d="M0 0 C162.36 0 324.72 0 492 0 C492 8.25 492 16.5 492 25 C329.64 25 167.28 25 0 25 C0 16.75 0 8.5 0 0 Z " fill="#595282" transform="translate(381,812)"/>
<path d="M0 0 C162.03 0 324.06 0 491 0 C491 8.25 491 16.5 491 25 C328.97 25 166.94 25 0 25 C0 16.75 0 8.5 0 0 Z " fill="#FAF9F2" transform="translate(382,366)"/>
<path d="M0 0 C149.49 0 298.98 0 453 0 C453 8.58 453 17.16 453 26 C303.51 26 154.02 26 0 26 C0 17.42 0 8.84 0 0 Z " fill="#312D5D" transform="translate(401,418)"/>
<path d="M0 0 C161.7 0 323.4 0 490 0 C490 7.92 490 15.84 490 24 C328.3 24 166.6 24 0 24 C0 16.08 0 8.16 0 0 Z " fill="#151339" transform="translate(382,858)"/>
<path d="M0 0 C0.33 0 0.66 0 1 0 C1.02293525 52.62970288 1.04053316 105.25940525 1.05106533 157.88911216 C1.0523159 164.11560928 1.05361023 170.3421064 1.05493164 176.56860352 C1.05519395 177.80808287 1.05545626 179.04756223 1.05572652 180.32460157 C1.06006684 200.34154393 1.06794533 220.3584834 1.0771528 240.37542405 C1.08653499 260.94517963 1.09206524 281.51493371 1.09408849 302.08469135 C1.09545427 314.75687157 1.09975329 327.4290436 1.10791647 340.1012213 C1.11324035 348.81456942 1.11479159 357.52791337 1.11350138 366.24126299 C1.11286674 371.25334575 1.11377478 376.26541427 1.11920547 381.27749443 C1.14150512 402.88347245 0.89419408 424.40860258 0 446 C-8.25 446 -16.5 446 -25 446 C-25.12925867 414.40072364 -25.25688602 382.80144131 -25.38218227 351.20214901 C-25.39719119 347.41731804 -25.41221426 343.63248713 -25.42724609 339.84765625 C-25.43023671 339.09459648 -25.43322732 338.34153671 -25.43630856 337.56565695 C-25.47805693 327.06043291 -25.52056141 316.55521217 -25.56369197 306.04999372 C-25.63812065 287.92135741 -25.71102877 269.79271563 -25.78125 251.6640625 C-25.78399162 250.9571463 -25.78673324 250.2502301 -25.78955793 249.52189219 C-25.9761149 201.34783799 -26.0709045 153.17442386 -26 105 C-31.94 105 -37.88 105 -44 105 C-44 96.42 -44 87.84 -44 79 C-37.73 79 -31.46 79 -25 79 C-25 61.51 -25 44.02 -25 26 C-16.75 26 -8.5 26 0 26 C0 17.42 0 8.84 0 0 Z " fill="#6D5A98" transform="translate(898,365)"/>
<path d="M0 0 C7.92 0 15.84 0 24 0 C24 145.2 24 290.4 24 440 C16.08 440 8.16 440 0 440 C0 294.8 0 149.6 0 0 Z " fill="#151339" transform="translate(899,391)"/>
<path d="M0 0 C7.92 0 15.84 0 24 0 C24 145.2 24 290.4 24 440 C16.08 440 8.16 440 0 440 C0 294.8 0 149.6 0 0 Z " fill="#141238" transform="translate(331,391)"/>
<path d="M0 0 C8.25 0 16.5 0 25 0 C25 138.6 25 277.2 25 420 C16.75 420 8.5 420 0 420 C0 281.4 0 142.8 0 0 Z " fill="#655890" transform="translate(356,391)"/>
<path d="M0 0 C5.94 0 11.88 0 18 0 C19.05607968 64.63576754 19.12668698 129.26404337 19.07202661 193.90712619 C19.06396973 203.54469165 19.0585941 213.18225611 19.05493164 222.81982422 C19.05453756 223.85386665 19.05453756 223.85386665 19.05413551 224.90879883 C19.05282946 228.37081575 19.05156599 231.83283269 19.05032361 235.29484963 C19.04013708 263.52990503 19.02239579 291.76495181 19 320 C12.73 320 6.46 320 0 320 C0 214.4 0 108.8 0 0 Z " fill="#3F366E" transform="translate(854,470)"/>
<path d="M0 0 C8.25 0 16.5 0 25 0 C25 74.25 25 148.5 25 225 C17.08 224.67 9.16 224.34 1 224 C1.01160156 220.57109375 1.02320313 217.1421875 1.03515625 213.609375 C1.0430196 210.18001396 1.04905461 206.75065403 1.05493164 203.32128906 C1.05987099 200.9905551 1.06662356 198.65982408 1.07543945 196.32910156 C1.0879745 192.92251854 1.09333159 189.51597736 1.09765625 186.109375 C1.10281754 185.11645447 1.10797882 184.12353394 1.11329651 183.1005249 C1.1137901 176.31091257 0.9139245 169.54798418 0.64009666 162.764534 C-0.0350884 145.86416032 -0.13343826 128.99293603 -0.10139394 112.08318043 C-0.09500573 108.12216695 -0.0945447 104.16115211 -0.09336853 100.20013428 C-0.09029965 92.74953996 -0.08214831 85.29896088 -0.07201904 77.84837317 C-0.06071716 69.3448648 -0.05531254 60.84135557 -0.05032361 52.33784151 C-0.03996023 34.89188538 -0.0222409 17.4459449 0 0 Z " fill="#936ABC" transform="translate(873,391)"/>
<path d="M0 0 C57.75 0 115.5 0 175 0 C175 8.58 175 17.16 175 26 C159.71323358 26.13271662 144.42645316 26.2635071 129.13964367 26.39115143 C122.03506128 26.45053013 114.93048689 26.51065264 107.82592773 26.57275391 C71.88336056 26.88645405 35.94427526 27.07127676 0 27 C0 18.09 0 9.18 0 0 Z " fill="#B2EDB8" transform="translate(611,693)"/>
<path d="M0 0 C149.49 0 298.98 0 453 0 C453 8.58 453 17.16 453 26 C452.67 26 452.34 26 452 26 C452 17.75 452 9.5 452 1 C274.295 1.495 274.295 1.495 93 2 C92.67 9.92 92.34 17.84 92 26 C61.64 26 31.28 26 0 26 C0 17.42 0 8.84 0 0 Z " fill="#474071" transform="translate(401,418)"/>
<path d="M0 0 C8.58 0 17.16 0 26 0 C26 8.91 26 17.82 26 27 C34.51162825 26.96040724 34.51162825 26.96040724 43.02319336 26.90991211 C44.6030603 26.90616577 44.6030603 26.90616577 46.21484375 26.90234375 C47.84087524 26.89448853 47.84087524 26.89448853 49.49975586 26.88647461 C52 27 52 27 53 28 C53.08748207 29.92667507 53.10697334 31.85651861 53.09765625 33.78515625 C53.09515869 34.83840088 53.09266113 35.89164551 53.09008789 36.97680664 C53.08098389 38.32508545 53.07187988 39.67336426 53.0625 41.0625 C53.041875 45.331875 53.02125 49.60125 53 54 C61.58 54 70.16 54 79 54 C79 62.91 79 71.82 79 81 C70.09 81 61.18 81 52 81 C52 72.42 52 63.84 52 55 C43.42 55 34.84 55 26 55 C26 46.09 26 37.18 26 28 C17.42 28 8.84 28 0 28 C0 18.76 0 9.52 0 0 Z " fill="#F7F5EE" transform="translate(467,507)"/>
<path d="M0 0 C8.91 0 17.82 0 27 0 C27 8.91 27 17.82 27 27 C18.42 27 9.84 27 1 27 C1 35.91 1 44.82 1 54 C-7.91 54 -16.82 54 -26 54 C-26 62.91 -26 71.82 -26 81 C-34.58 81 -43.16 81 -52 81 C-52 71.76 -52 62.52 -52 53 C-43.42 53 -34.84 53 -26 53 C-26 44.42 -26 35.84 -26 27 C-17.42 27 -8.84 27 0 27 C0 18.09 0 9.18 0 0 Z " fill="#E5E3E0" transform="translate(519,616)"/>
<path d="M0 0 C0.33 0 0.66 0 1 0 C1 147.18 1 294.36 1 446 C171.61 446 342.22 446 518 446 C518 446.33 518 446.66 518 447 C355.64 447 193.28 447 26 447 C26 453.6 26 460.2 26 467 C17.75 467 9.5 467 1 467 C1 475.25 1 483.5 1 492 C0.67 492 0.34 492 0 492 C0 483.75 0 475.5 0 467 C-8.25 467 -16.5 467 -25 467 C-25 321.47 -25 175.94 -25 26 C-24.67 26 -24.34 26 -24 26 C-24 171.2 -24 316.4 -24 466 C-16.08 466 -8.16 466 0 466 C0 312.22 0 158.44 0 0 Z " fill="#36325C" transform="translate(355,365)"/>
<path d="M0 0 C8.58 0 17.16 0 26 0 C26 9.24 26 18.48 26 28 C17.42 28 8.84 28 0 28 C0 18.76 0 9.52 0 0 Z " fill="#F5F3EC" transform="translate(546,588)"/>
<path d="M0 0 C8.25 0 16.5 0 25 0 C25 9.57 25 19.14 25 29 C16.75 29 8.5 29 0 29 C0 19.43 0 9.86 0 0 Z " fill="#595281" transform="translate(873,782)"/>
<path d="M0 0 C8.25 0 16.5 0 25 0 C25 8.58 25 17.16 25 26 C16.75 26 8.5 26 0 26 C0 17.42 0 8.84 0 0 Z " fill="#F7F5ED" transform="translate(468,670)"/>
<path d="M0 0 C8.25 0 16.5 0 25 0 C25 8.58 25 17.16 25 26 C16.75 26 8.5 26 0 26 C0 17.42 0 8.84 0 0 Z " fill="#F7F6EE" transform="translate(494,643)"/>
<path d="M0 0 C8.25 0 16.5 0 25 0 C25 8.58 25 17.16 25 26 C16.75 26 8.5 26 0 26 C0 17.42 0 8.84 0 0 Z " fill="#F9F7F1" transform="translate(494,535)"/>
<path d="M0 0 C8.25 0 16.5 0 25 0 C25 8.58 25 17.16 25 26 C16.75 26 8.5 26 0 26 C0 17.42 0 8.84 0 0 Z " fill="#F9F8F2" transform="translate(468,508)"/>
<path d="M0 0 C8.25 0 16.5 0 25 0 C25 8.25 25 16.5 25 25 C16.75 25 8.5 25 0 25 C0 16.75 0 8.5 0 0 Z " fill="#151339" transform="translate(873,832)"/>
<path d="M0 0 C8.25 0 16.5 0 25 0 C25 8.25 25 16.5 25 25 C16.75 25 8.5 25 0 25 C0 16.75 0 8.5 0 0 Z " fill="#151339" transform="translate(356,832)"/>
<path d="M0 0 C6.27 0 12.54 0 19 0 C19 35.64 19 71.28 19 108 C18.67 108 18.34 108 18 108 C18 80.94 18 53.88 18 26 C12.06 26 6.12 26 0 26 C0 17.42 0 8.84 0 0 Z " fill="#5B438C" transform="translate(854,444)"/>
<path d="M0 0 C6.6 0 13.2 0 20 0 C20 8.58 20 17.16 20 26 C13.4 26 6.8 26 0 26 C0 17.42 0 8.84 0 0 Z " fill="#DEDAD2" transform="translate(381,418)"/>
<path d="M0 0 C8.58 0 17.16 0 26 0 C26 0.33 26 0.66 26 1 C17.75 1 9.5 1 1 1 C1 9.58 1 18.16 1 27 C4.66996094 26.98839844 8.33992188 26.97679687 12.12109375 26.96484375 C15.65893467 26.95705448 19.19677464 26.95097698 22.73461914 26.94506836 C25.20142033 26.94002644 27.66821852 26.93319309 30.13500977 26.92456055 C33.67204529 26.91248875 37.20904145 26.90677044 40.74609375 26.90234375 C41.85649521 26.89718246 42.96689667 26.89202118 44.11094666 26.88670349 C45.64242088 26.88659019 45.64242088 26.88659019 47.20483398 26.88647461 C48.10862289 26.884254 49.0124118 26.88203339 49.94358826 26.87974548 C52 27 52 27 53 28 C53.08748207 29.92667507 53.10697334 31.85651861 53.09765625 33.78515625 C53.09515869 34.83840088 53.09266113 35.89164551 53.09008789 36.97680664 C53.08098389 38.32508545 53.07187988 39.67336426 53.0625 41.0625 C53.041875 45.331875 53.02125 49.60125 53 54 C61.58 54 70.16 54 79 54 C79 54.33 79 54.66 79 55 C70.42 55 61.84 55 53 55 C53 63.58 53 72.16 53 81 C52.67 81 52.34 81 52 81 C52 72.42 52 63.84 52 55 C43.42 55 34.84 55 26 55 C26 46.09 26 37.18 26 28 C17.42 28 8.84 28 0 28 C0 18.76 0 9.52 0 0 Z M27 28 C27 36.58 27 45.16 27 54 C35.25 54 43.5 54 52 54 C52 45.42 52 36.84 52 28 C43.75 28 35.5 28 27 28 Z " fill="#9F9DA9" transform="translate(467,507)"/>
<path d="M0 0 C0.33 0 0.66 0 1 0 C1 8.58 1 17.16 1 26 C9.58 26 18.16 26 27 26 C27 26.33 27 26.66 27 27 C18.42 27 9.84 27 1 27 C1 35.58 1 44.16 1 53 C0.67 53 0.34 53 0 53 C0 44.42 0 35.84 0 27 C-8.58 27 -17.16 27 -26 27 C-26 26.67 -26 26.34 -26 26 C-17.42 26 -8.84 26 0 26 C0 17.42 0 8.84 0 0 Z " fill="#888697" transform="translate(519,535)"/>
</svg>
