<?xml version="1.0" encoding="UTF-8"?>
<svg version="1.1" xmlns="http://www.w3.org/2000/svg" width="1254" height="1254">
<path d="M0 0 C413.82 0 827.64 0 1254 0 C1254 413.82 1254 827.64 1254 1254 C840.18 1254 426.36 1254 0 1254 C0 840.18 0 426.36 0 0 Z " fill="#FDFDFD" transform="translate(0,0)"/>
<path d="M0 0 C33.99 0 67.98 0 103 0 C103 15.18 103 30.36 103 46 C115.21 46 127.42 46 140 46 C140 52.6 140 59.2 140 66 C206.99 66 273.98 66 343 66 C343 59.4 343 52.8 343 46 C355.21 46 367.42 46 380 46 C380 30.82 380 15.64 380 0 C414.98 0 449.96 0 486 0 C486 15.18 486 30.36 486 46 C506.46 46 526.92 46 548 46 C548 57.55 548 69.1 548 81 C559.55 81 571.1 81 583 81 C583 93.21 583 105.42 583 118 C594.22 118 605.44 118 617 118 C617 172.45 617 226.9 617 283 C628.88 283 640.76 283 653 283 C653 371.44 653 459.88 653 551 C641.45 551 629.9 551 618 551 C618 562.55 618 574.1 618 586 C606.45 586 594.9 586 583 586 C583 597.22 583 608.44 583 620 C551.32 620 519.64 620 487 620 C487 610.1 487 600.2 487 590 C477.1 590 467.2 590 457 590 C457 584.72 457 579.44 457 574 C444.79 574 432.58 574 420 574 C420 554.86 420 535.72 420 516 C401.85 516 383.7 516 365 516 C365 496.53 365 477.06 365 457 C280.19 457 195.38 457 108 457 C108 476.47 108 495.94 108 516 C89.52 516 71.04 516 52 516 C52 535.14 52 554.28 52 574 C40.12 574 28.24 574 16 574 C16 579.28 16 584.56 16 590 C8.74 590 1.48 590 -6 590 C-6 599.9 -6 609.8 -6 620 C-36.69 620 -67.38 620 -99 620 C-99 608.78 -99 597.56 -99 586 C-110.55 586 -122.1 586 -134 586 C-134 574.45 -134 562.9 -134 551 C-145.88 551 -157.76 551 -170 551 C-170 462.56 -170 374.12 -170 283 C-158.12 283 -146.24 283 -134 283 C-134 228.55 -134 174.1 -134 118 C-122.45 118 -110.9 118 -99 118 C-99 105.79 -99 93.58 -99 81 C-87.45 81 -75.9 81 -64 81 C-64 69.45 -64 57.9 -64 46 C-42.88 46 -21.76 46 0 46 C0 30.82 0 15.64 0 0 Z " fill="#BCAFE9" transform="translate(385,288)"/>
<path d="M0 0 C33.99 0 67.98 0 103 0 C103 15.18 103 30.36 103 46 C115.21 46 127.42 46 140 46 C140 52.6 140 59.2 140 66 C206.99 66 273.98 66 343 66 C343 59.4 343 52.8 343 46 C355.21 46 367.42 46 380 46 C380 30.82 380 15.64 380 0 C414.98 0 449.96 0 486 0 C486 15.18 486 30.36 486 46 C506.46 46 526.92 46 548 46 C548 57.55 548 69.1 548 81 C559.55 81 571.1 81 583 81 C583 93.21 583 105.42 583 118 C594.22 118 605.44 118 617 118 C617 172.45 617 226.9 617 283 C628.88 283 640.76 283 653 283 C653 371.44 653 459.88 653 551 C641.12 551 629.24 551 617 551 C616.14562208 501.57418936 615.86539065 452.16683879 615.92797339 402.73420751 C615.93950222 393.45357029 615.94473471 384.17293197 615.94967639 374.89228928 C615.9599032 355.92818293 615.97810423 336.96409671 616 318 C604.78 318 593.56 318 582 318 C581.67 306.78 581.34 295.56 581 284 C579.35 284.66 577.7 285.32 576 286 C575.67 296.23 575.34 306.46 575 317 C572.03 317 569.06 317 566 317 C566 305.78 566 294.56 566 283 C562.7 283 559.4 283 556 283 C556 280.36 556 277.72 556 275 C549.4 275 542.8 275 536 275 C536 281.6 536 288.2 536 295 C522.14 295 508.28 295 494 295 C494 288.07 494 281.14 494 274 C487.4 274 480.8 274 474 274 C474 260.14 474 246.28 474 232 C480.6 232 487.2 232 494 232 C494 225.07 494 218.14 494 211 C507.86 211 521.72 211 536 211 C536 217.93 536 224.86 536 232 C542.27 232 548.54 232 555 232 C555 206.26 555 180.52 555 154 C552.69 154 550.38 154 548 154 C548 142.45 548 130.9 548 119 C536.45 119 524.9 119 513 119 C513 109.1 513 99.2 513 89 C492.54 89 472.08 89 451 89 C451 89.66 451 90.32 451 91 C324.61 91 198.22 91 68 91 C68 73.84 68 56.68 68 39 C56.45 39 44.9 39 33 39 C33 55.17 33 71.34 33 88 C0.99 88 -31.02 88 -64 88 C-64 98.23 -64 108.46 -64 119 C-75.55 119 -87.1 119 -99 119 C-99 173.12 -99 227.24 -99 283 C-110.55 283 -122.1 283 -134 283 C-134 228.55 -134 174.1 -134 118 C-122.45 118 -110.9 118 -99 118 C-99 105.79 -99 93.58 -99 81 C-87.45 81 -75.9 81 -64 81 C-64 69.45 -64 57.9 -64 46 C-42.88 46 -21.76 46 0 46 C0 30.82 0 15.64 0 0 Z " fill="#110B3C" transform="translate(385,288)"/>
<path d="M0 0 C11.88 0 23.76 0 36 0 C36 76.56 36 153.12 36 232 C73.62 232 111.24 232 150 232 C150 220.12 150 208.24 150 196 C161.88 196 173.76 196 186 196 C186 184.12 186 172.24 186 160 C197.55 160 209.1 160 221 160 C221 148.12 221 136.24 221 124 C232.55 124 244.1 124 256 124 C256 117.4 256 110.8 256 104 C267.22 104 278.44 104 290 104 C290 115.22 290 126.44 290 138 C366.23 138 442.46 138 521 138 C521 126.78 521 115.56 521 104 C532.22 104 543.44 104 555 104 C555.33 110.6 555.66 117.2 556 124 C567.22 124.33 578.44 124.66 590 125 C590.1699519 136.08329202 590.33801606 147.16659139 590.5 158.25 C590.51187725 159.06246815 590.5237545 159.87493629 590.53599167 160.71202469 C590.88195102 184.47787855 591.10953549 208.2307986 591 232 C602.55 232 614.1 232 626 232 C626 243.55 626 255.1 626 267 C637.88 267 649.76 267 662 267 C662 278.55 662 290.1 662 302 C691.7 302 721.4 302 752 302 C752 313.22 752 324.44 752 336 C720.65 336 689.3 336 657 336 C657 326.1 657 316.2 657 306 C647.1 306 637.2 306 627 306 C627 300.72 627 295.44 627 290 C614.79 290 602.58 290 590 290 C590 270.86 590 251.72 590 232 C571.85 232 553.7 232 535 232 C535 212.53 535 193.06 535 173 C450.19 173 365.38 173 278 173 C278 192.47 278 211.94 278 232 C259.52 232 241.04 232 222 232 C222 251.14 222 270.28 222 290 C210.12 290 198.24 290 186 290 C186 295.28 186 300.56 186 306 C178.74 306 171.48 306 164 306 C164 315.9 164 325.8 164 336 C133.31 336 102.62 336 71 336 C71 324.78 71 313.56 71 302 C59.45 302 47.9 302 36 302 C36 290.45 36 278.9 36 267 C24.12 267 12.24 267 0 267 C0 178.89 0 90.78 0 0 Z " fill="#7C69BA" transform="translate(215,572)"/>
<path d="M0 0 C11.55 0 23.1 0 35 0 C35 16.17 35 32.34 35 49 C67.01 49 99.02 49 132 49 C132 58.9 132 68.8 132 79 C143.22 79 154.44 79 166 79 C166 67.12 166 55.24 166 43 C154.78 43 143.56 43 132 43 C132 42.67 132 42.34 132 42 C143.55 42 155.1 42 167 42 C167 54.21 167 66.42 167 79 C178.22 79 189.44 79 201 79 C201 133.45 201 187.9 201 244 C212.88 244 224.76 244 237 244 C237 332.44 237 420.88 237 512 C225.12 512 213.24 512 201 512 C200.14562208 462.57418936 199.86539065 413.16683879 199.92797339 363.73420751 C199.93950222 354.45357029 199.94473471 345.17293197 199.94967639 335.89228928 C199.9599032 316.92818293 199.97810423 297.96409671 200 279 C188.78 279 177.56 279 166 279 C165.67 267.78 165.34 256.56 165 245 C162.525 245.99 162.525 245.99 160 247 C159.67 257.23 159.34 267.46 159 278 C156.03 278 153.06 278 150 278 C150 266.78 150 255.56 150 244 C146.7 244 143.4 244 140 244 C140 241.36 140 238.72 140 236 C133.4 236 126.8 236 120 236 C120 242.6 120 249.2 120 256 C106.14 256 92.28 256 78 256 C78 249.07 78 242.14 78 235 C71.4 235 64.8 235 58 235 C58 221.14 58 207.28 58 193 C64.6 193 71.2 193 78 193 C78 186.07 78 179.14 78 172 C91.86 172 105.72 172 120 172 C120 178.93 120 185.86 120 193 C126.27 193 132.54 193 139 193 C139 167.26 139 141.52 139 115 C136.69 115 134.38 115 132 115 C132 103.45 132 91.9 132 80 C120.45 80 108.9 80 97 80 C97 70.1 97 60.2 97 50 C76.54 50 56.08 50 35 50 C35 50.66 35 51.32 35 52 C23.45 52 11.9 52 0 52 C0 34.84 0 17.68 0 0 Z " fill="#907FCC" transform="translate(801,327)"/>
<path d="M0 0 C0 11.55 0 23.1 0 35 C11.22 35 22.44 35 34 35 C34.02505615 39.53564697 34.0501123 44.07129395 34.07592773 48.74438477 C34.16097849 64.05889511 34.24938605 79.37338488 34.33933926 94.68786716 C34.39357959 103.9352138 34.44680892 113.18256379 34.49731445 122.42993164 C34.55607822 133.16294358 34.61795403 143.89593409 34.68359375 154.62890625 C34.68900665 155.51680737 34.69441955 156.40470849 34.69999647 157.31951571 C34.87361441 185.54170725 35.17098286 213.76039392 35.63910109 241.97930235 C35.97573169 262.32417485 36.03819308 282.65207443 36 303 C24.45 303 12.9 303 1 303 C1 314.22 1 325.44 1 337 C0.67 337 0.34 337 0 337 C0 325.78 0 314.56 0 303 C-29.7 303 -59.4 303 -90 303 C-90 291.45 -90 279.9 -90 268 C-101.88 268 -113.76 268 -126 268 C-126 256.45 -126 244.9 -126 233 C-137.55 233 -149.1 233 -161 233 C-161.74938878 209.30057986 -162.09717471 185.71062935 -162 162 C-150.12 162 -138.24 162 -126 162 C-126 173.55 -126 185.1 -126 197 C-114.12 197 -102.24 197 -90 197 C-90 208.88 -90 220.76 -90 233 C-74.49 233 -58.98 233 -43 233 C-43 221.12 -43 209.24 -43 197 C-31.12 197 -19.24 197 -7 197 C-7.01047363 191.1336377 -7.02094727 185.26727539 -7.03173828 179.22314453 C-7.0648068 159.88885275 -7.0870428 140.55455989 -7.10362434 121.22024727 C-7.11394918 109.49235725 -7.12803251 97.76449396 -7.15087891 86.03662109 C-7.1707759 75.81793732 -7.18370764 65.5992729 -7.18817699 55.38057029 C-7.19079064 49.96684555 -7.19695879 44.55317619 -7.21146011 39.13946915 C-7.22498578 34.0489905 -7.22923286 28.95859031 -7.22621536 23.8680954 C-7.22676778 21.99513956 -7.23077497 20.12218123 -7.23841095 18.24924088 C-7.24829384 15.70122905 -7.24599345 13.15351738 -7.24050903 10.60549927 C-7.24633472 9.85648098 -7.2521604 9.10746269 -7.25816262 8.33574688 C-7.22824242 3.22824242 -7.22824242 3.22824242 -5 1 C-1.7 0 -1.7 0 0 0 Z " fill="#7E6BBC" transform="translate(967,571)"/>
<path d="M0 0 C25.41 0 50.82 0 77 0 C77 17.82 77 35.64 77 54 C94.82 54 112.64 54 131 54 C131 78.75 131 103.5 131 129 C113.18 129 95.36 129 77 129 C77 146.49 77 163.98 77 182 C51.59 182 26.18 182 0 182 C0 164.51 0 147.02 0 129 C-17.82 129 -35.64 129 -54 129 C-54 104.25 -54 79.5 -54 54 C-36.18 54 -18.36 54 0 54 C0 36.18 0 18.36 0 0 Z " fill="#100B3C" transform="translate(386,442)"/>
<path d="M0 0 C98.67 0 197.34 0 299 0 C299.62212651 13.6867833 300.13901339 27.20144826 300.0625 40.875 C300.041875 46.19625 300.02125 51.5175 300 57 C311.55 57 323.1 57 335 57 C335 68.88 335 80.76 335 93 C346.55 93 358.1 93 370 93 C370 104.55 370 116.1 370 128 C381.88 128 393.76 128 406 128 C406 139.55 406 151.1 406 163 C435.7 163 465.4 163 496 163 C496 174.22 496 185.44 496 197 C464.65 197 433.3 197 401 197 C401 187.1 401 177.2 401 167 C391.1 167 381.2 167 371 167 C371 161.72 371 156.44 371 151 C358.79 151 346.58 151 334 151 C334 131.86 334 112.72 334 93 C316.18 93 298.36 93 280 93 C280 73.2 280 53.4 280 33 C194.53 33 109.06 33 21 33 C21 52.47 21 71.94 21 92 C2.85 92 -15.3 92 -34 92 C-34 80.78 -34 69.56 -34 58 C-22.78 58 -11.56 58 0 58 C0 38.86 0 19.72 0 0 Z " fill="#110B3C" transform="translate(471,711)"/>
<path d="M0 0 C31.68 0 63.36 0 96 0 C96 0.33 96 0.66 96 1 C64.98 1 33.96 1 2 1 C2 10.57 2 20.14 2 30 C8.87973331 30.28771571 8.87973331 30.28771571 15.75976562 30.56811523 C16.63310547 30.60622314 17.50644531 30.64433105 18.40625 30.68359375 C19.28603516 30.72025146 20.16582031 30.75690918 21.07226562 30.79467773 C24.72795575 31.0510516 28.36363017 31.54545377 32 32 C32 42.89 32 53.78 32 65 C21.44 65 10.88 65 0 65 C0 71.6 0 78.2 0 85 C9.9 85 19.8 85 30 85 C30 95.56 30 106.12 30 117 C41.22 117 52.44 117 64 117 C64 117.33 64 117.66 64 118 C46.51 118.33 29.02 118.66 11 119 C10.67 143.75 10.34 168.5 10 194 C9.67 194 9.34 194 9 194 C9 169.25 9 144.5 9 119 C6.03 119 3.06 119 0 119 C0 143.75 0 168.5 0 194 C-0.66 194 -1.32 194 -2 194 C-2 212.81 -2 231.62 -2 251 C-12.89 251 -23.78 251 -35 251 C-34.99476318 255.20548584 -34.98952637 259.41097168 -34.98413086 263.74389648 C-34.96759895 277.60200743 -34.95647955 291.46011821 -34.94818783 305.31823635 C-34.94302469 313.72461384 -34.93598166 322.13098201 -34.92456055 330.53735352 C-34.91461425 337.86167932 -34.9081467 345.18599837 -34.90591151 352.51033074 C-34.90460431 356.39090787 -34.90151788 360.2714657 -34.89426994 364.15203667 C-34.88751058 367.80039557 -34.88538287 371.44872711 -34.88689232 375.09709167 C-34.88648363 377.08288419 -34.881088 379.0686737 -34.87557983 381.05445862 C-34.8769545 382.2254007 -34.87832916 383.39634277 -34.87974548 384.60276794 C-34.87882369 385.62687995 -34.8779019 386.65099195 -34.87695217 387.70613766 C-35 390 -35 390 -36 391 C-46.89 391 -57.78 391 -69 391 C-69 337.21 -69 283.42 -69 228 C-57.78 228 -46.56 228 -35 228 C-35 162.66 -35 97.32 -35 30 C-23.45 30 -11.9 30 0 30 C0 20.1 0 10.2 0 0 Z " fill="#CDC4EF" transform="translate(321,377)"/>
<path d="M0 0 C9.24 0 18.48 0 28 0 C28 6.27 28 12.54 28 19 C36.91 19 45.82 19 55 19 C55 21.31 55 23.62 55 26 C116.05 26 177.1 26 240 26 C240 23.69 240 21.38 240 19 C249.9 19 259.8 19 270 19 C270 12.73 270 6.46 270 0 C279.9 0 289.8 0 300 0 C300 15.18 300 30.36 300 46 C299.67 46 299.34 46 299 46 C299 39.4 299 32.8 299 26 C287.78 26 276.56 26 265 26 C265 37.22 265 48.44 265 60 C188.77 60 112.54 60 34 60 C34 48.78 34 37.56 34 26 C22.78 26 11.56 26 0 26 C0 17.42 0 8.84 0 0 Z " fill="#7E6BBC" transform="translate(471,650)"/>
<path d="M0 0 C11.88 0 23.76 0 36 0 C36 88.11 36 176.22 36 267 C24.12 267 12.24 267 0 267 C-0.83393642 218.04850215 -1.16173838 169.11293163 -1.12856841 120.15470481 C-1.12419805 112.93886706 -1.12735806 105.72304658 -1.1321975 98.5072099 C-1.13734456 90.49546415 -1.13672432 82.48372757 -1.13381577 74.47198105 C-1.1327312 71.14994816 -1.13358725 67.82792561 -1.13629532 64.50589371 C-1.15154932 42.97892466 -0.74368564 21.5166646 0 0 Z " fill="#100B3C" transform="translate(1002,572)"/>
<path d="M0 0 C11.88 0 23.76 0 36 0 C36 88.11 36 176.22 36 267 C24.12 267 12.24 267 0 267 C0 178.89 0 90.78 0 0 Z " fill="#0F0A3A" transform="translate(215,572)"/>
<path d="M0 0 C12.54 0 25.08 0 38 0 C38 17.82 38 35.64 38 54 C56.15 54 74.3 54 93 54 C93.0309375 60.9609375 93.0309375 60.9609375 93.0625 68.0625 C93.071604 69.51277588 93.08070801 70.96305176 93.09008789 72.45727539 C93.09383423 74.19738892 93.09383423 74.19738892 93.09765625 75.97265625 C93.10289307 77.15093994 93.10812988 78.32922363 93.11352539 79.54321289 C93 83 93 83 92 90 C74.18 90 56.36 90 38 90 C38 107.82 38 125.64 38 144 C25.46 144 12.92 144 0 144 C0 126.18 0 108.36 0 90 C-17.82 90 -35.64 90 -54 90 C-54 78.12 -54 66.24 -54 54 C-36.18 54 -18.36 54 0 54 C0 36.18 0 18.36 0 0 Z " fill="#45345E" transform="translate(405,461)"/>
<path d="M0 0 C11.55 0 23.1 0 35 0 C35.24956592 16.31537233 35.24956592 16.31537233 35.35546875 23.52929688 C35.42641789 28.36127045 35.49780634 33.19323305 35.57275391 38.02514648 C35.92340603 60.68678158 36.046768 83.33505984 36 106 C24.45 106 12.9 106 1 106 C1 117.22 1 128.44 1 140 C0.67 140 0.34 140 0 140 C0 128.78 0 117.56 0 106 C-29.7 106 -59.4 106 -90 106 C-90 94.45 -90 82.9 -90 71 C-101.88 71 -113.76 71 -126 71 C-126 59.45 -126 47.9 -126 36 C-125.67 36 -125.34 36 -125 36 C-125 47.22 -125 58.44 -125 70 C-120.02421875 69.9896875 -115.0484375 69.979375 -109.921875 69.96875 C-88.36961385 69.95268683 -66.8214297 70.20165977 -45.27105713 70.46356201 C-39.22883883 70.53643924 -33.18658243 70.606086 -27.14433289 70.67631531 C-18.09619152 70.78182344 -9.04810575 70.8912674 0 71 C0 47.57 0 24.14 0 0 Z " fill="#5E4D9D" transform="translate(967,768)"/>
<path d="M0 0 C11.55 0 23.1 0 35 0 C35 18.81 35 37.62 35 57 C23.45 57 11.9 57 0 57 C0 62.61 0 68.22 0 74 C-7.26 74 -14.52 74 -22 74 C-22 83.9 -22 93.8 -22 104 C-52.36 104 -82.72 104 -114 104 C-114 92.78 -114 81.56 -114 70 C-87.93 70 -61.86 70 -35 70 C-35 58.45 -35 46.9 -35 35 C-23.45 35 -11.9 35 0 35 C0 23.45 0 11.9 0 0 Z " fill="#110B3C" transform="translate(401,804)"/>
<path d="M0 0 C11.22 0 22.44 0 34 0 C34 54.12 34 108.24 34 164 C22.78 164 11.56 164 0 164 C0 109.88 0 55.76 0 0 Z " fill="#0F0A3B" transform="translate(968,407)"/>
<path d="M0 0 C11.22 0 22.44 0 34 0 C34 6.6 34 13.2 34 20 C43.9 20 53.8 20 64 20 C64 30.56 64 41.12 64 52 C75.22 52 86.44 52 98 52 C98 52.33 98 52.66 98 53 C80.51 53.33 63.02 53.66 45 54 C44.67 78.75 44.34 103.5 44 129 C43.67 129 43.34 129 43 129 C43 104.25 43 79.5 43 54 C40.03 54 37.06 54 34 54 C34 67.2 34 80.4 34 94 C23.11 94 12.22 94 1 94 C1 105.55 1 117.1 1 129 C10.9 129 20.8 129 31 129 C31 140.22 31 151.44 31 163 C20.77 163 10.54 163 0 163 C0 109.21 0 55.42 0 0 Z " fill="#EDE9FB" transform="translate(287,442)"/>
<path d="M0 0 C11.55 0 23.1 0 35 0 C35 11.55 35 23.1 35 35 C61.4 35 87.8 35 115 35 C115 46.55 115 58.1 115 70 C88.93 70 62.86 70 36 70 C36 81.22 36 92.44 36 104 C35.67 104 35.34 104 35 104 C35 92.78 35 81.56 35 70 C23.45 70 11.9 70 0 70 C0 46.9 0 23.8 0 0 Z " fill="#5A4A9B" transform="translate(251,804)"/>
<path d="M0 0 C11.22 0 22.44 0 34 0 C34.02254853 13.54264475 34.04091364 27.08527713 34.05181217 40.62793636 C34.05704162 46.91562024 34.06414039 53.20329066 34.07543945 59.4909668 C34.08626614 65.55337723 34.09227637 71.61577469 34.09487724 77.67819405 C34.09673189 79.99676277 34.10035325 82.31533074 34.10573006 84.63389397 C34.11293758 87.86914508 34.11399106 91.10434183 34.11352539 94.33959961 C34.11712067 95.30848114 34.12071594 96.27736267 34.12442017 97.27560425 C34.1230455 98.15205093 34.12167084 99.02849762 34.12025452 99.9315033 C34.12117631 100.69751327 34.1220981 101.46352324 34.12304783 102.25274563 C34 104 34 104 33 105 C22.11 105 11.22 105 0 105 C0 70.35 0 35.7 0 0 Z " fill="#CABEEF" transform="translate(252,663)"/>
<path d="M0 0 C11.55 0 23.1 0 35 0 C35 16.17 35 32.34 35 49 C67.01 49 99.02 49 132 49 C132 59.23 132 69.46 132 80 C120.45 80 108.9 80 97 80 C97 70.1 97 60.2 97 50 C76.54 50 56.08 50 35 50 C35 50.66 35 51.32 35 52 C23.45 52 11.9 52 0 52 C0 34.84 0 17.68 0 0 Z " fill="#7A68B9" transform="translate(801,327)"/>
<path d="M0 0 C11.55 0 23.1 0 35 0 C35 12.21 35 24.42 35 37 C46.22 37 57.44 37 69 37 C69 37.33 69 37.66 69 38 C57.78 38 46.56 38 35 38 C35 92.12 35 146.24 35 202 C58.1 202 81.2 202 105 202 C105 202.33 105 202.66 105 203 C93.12 203 81.24 203 69 203 C69.03959995 213.81533243 69.03959995 213.81533243 69.09008789 224.63061523 C69.09300716 225.98160727 69.09555569 227.33260019 69.09765625 228.68359375 C69.10277222 229.39100708 69.10788818 230.09842041 69.11315918 230.82727051 C69.11347032 232.55192617 69.06225761 234.27646838 69 236 C68.67 236.33 68.34 236.66 68 237 C56.78 237 45.56 237 34 237 C34 182.88 34 128.76 34 73 C22.78 73 11.56 73 0 73 C0 61.12 0 49.24 0 37 C11.22 37 22.44 37 34 37 C34 25.12 34 13.24 34 1 C22.78 1 11.56 1 0 1 C0 0.67 0 0.34 0 0 Z " fill="#5F4EA1" transform="translate(933,369)"/>
<path d="M0 0 C11.55 0 23.1 0 35 0 C35 23.43 35 46.86 35 71 C23.45 71 11.9 71 0 71 C0 47.57 0 24.14 0 0 Z " fill="#5E4DA0" transform="translate(967,768)"/>
<path d="M0 0 C20.79 0 41.58 0 63 0 C63.33 16.83 63.66 33.66 64 51 C52.78 51 41.56 51 30 51 C30 40.77 30 30.54 30 20 C20.1 20 10.2 20 0 20 C0 13.4 0 6.8 0 0 Z " fill="#BCAFE9" transform="translate(321,442)"/>
<path d="M0 0 C0.96552795 0.00151062 0.96552795 0.00151062 1.95056152 0.00305176 C4.33554894 0.00825026 6.7205108 0.02221133 9.10546875 0.03515625 C14.44734375 0.05578125 19.78921875 0.07640625 25.29296875 0.09765625 C25.29296875 17.91765625 25.29296875 35.73765625 25.29296875 54.09765625 C12.75296875 54.09765625 0.21296875 54.09765625 -12.70703125 54.09765625 C-12.70703125 36.60765625 -12.70703125 19.11765625 -12.70703125 1.09765625 C-8.32759133 0.22176827 -4.41765774 -0.03289993 0 0 Z " fill="#40305A" transform="translate(417.70703125,550.90234375)"/>
<path d="M0 0 C11.55 0 23.1 0 35 0 C35 17.16 35 34.32 35 52 C23.45 52 11.9 52 0 52 C0 51.34 0 50.68 0 50 C-32.01 50 -64.02 50 -97 50 C-97 49.67 -97 49.34 -97 49 C-64.99 49 -32.98 49 0 49 C0 32.83 0 16.66 0 0 Z " fill="#7A68BA" transform="translate(418,327)"/>
<path d="M0 0 C11.55 0 23.1 0 35 0 C35 11.88 35 23.76 35 36 C23.78 36 12.56 36 1 36 C1 47.22 1 58.44 1 70 C19.15 70 37.3 70 56 70 C56 50.53 56 31.06 56 11 C141.47 11 226.94 11 315 11 C315 30.8 315 50.6 315 71 C314.67 71 314.34 71 314 71 C314 51.53 314 32.06 314 12 C229.19 12 144.38 12 57 12 C57 31.47 57 50.94 57 71 C38.52 71 20.04 71 1 71 C1 90.14 1 109.28 1 129 C-10.88 129 -22.76 129 -35 129 C-35 128.67 -35 128.34 -35 128 C-23.45 128 -11.9 128 0 128 C0 85.76 0 43.52 0 0 Z " fill="#685C9D" transform="translate(436,733)"/>
<path d="M0 0 C14.52 0 29.04 0 44 0 C44 13.53 44 27.06 44 41 C29.48 41 14.96 41 0 41 C0 27.47 0 13.94 0 0 Z " fill="#D89EF8" transform="translate(806,587)"/>
<path d="M0 0 C14.52 0 29.04 0 44 0 C44 13.53 44 27.06 44 41 C29.48 41 14.96 41 0 41 C0 27.47 0 13.94 0 0 Z " fill="#DFFAD4" transform="translate(806,454)"/>
<path d="M0 0 C13.53 0 27.06 0 41 0 C41 13.86 41 27.72 41 42 C27.47 42 13.94 42 0 42 C0 28.14 0 14.28 0 0 Z " fill="#F6D2B2" transform="translate(736,520)"/>
<path d="M0 0 C13.53 0 27.06 0 41 0 C41 13.53 41 27.06 41 41 C27.47 41 13.94 41 0 41 C0 27.47 0 13.94 0 0 Z " fill="#F8A7BD" transform="translate(879,521)"/>
<path d="M0 0 C11.22 0 22.44 0 34 0 C35.07879059 19.01368421 35.10548376 37.96423857 35 57 C34.67 57 34.34 57 34 57 C34 49.74 34 42.48 34 35 C-64.34 35 -162.68 35 -264 35 C-264 34.67 -264 34.34 -264 34 C-176.88 34 -89.76 34 0 34 C0 22.78 0 11.56 0 0 Z " fill="#5D4D9C" transform="translate(736,676)"/>
<path d="M0 0 C23.43 0 46.86 0 71 0 C71 11.22 71 22.44 71 34 C59.78 34 48.56 34 37 34 C37 87.79 37 141.58 37 197 C36.67 197 36.34 197 36 197 C36 132.32 36 67.64 36 1 C24.12 1 12.24 1 0 1 C0 0.67 0 0.34 0 0 Z " fill="#62529F" transform="translate(215,571)"/>
<path d="M0 0 C11.55 0.33 23.1 0.66 35 1 C35 12.55 35 24.1 35 36 C23.45 36 11.9 36 0 36 C0 24.12 0 12.24 0 0 Z " fill="#9381CC" transform="translate(251,768)"/>
<path d="M0 0 C11.55 0 23.1 0 35 0 C35 11.55 35 23.1 35 35 C23.45 35 11.9 35 0 35 C0 23.45 0 11.9 0 0 Z " fill="#5C4B9D" transform="translate(251,804)"/>
<path d="M0 0 C10.89 0 21.78 0 33 0 C33 11.55 33 23.1 33 35 C32.34 35 31.68 35 31 35 C31 53.81 31 72.62 31 92 C30.67 92 30.34 92 30 92 C30 73.19 30 54.38 30 35 C20.1 35 10.2 35 0 35 C0 23.45 0 11.9 0 0 Z " fill="#D1C6F3" transform="translate(288,536)"/>
<path d="M0 0 C11.55 0 23.1 0 35 0 C35 11.22 35 22.44 35 34 C23.45 34 11.9 34 0 34 C0 22.78 0 11.56 0 0 Z " fill="#110C3C" transform="translate(967,839)"/>
<path d="M0 0 C11.55 0 23.1 0 35 0 C35 11.22 35 22.44 35 34 C23.45 34 11.9 34 0 34 C0 22.78 0 11.56 0 0 Z " fill="#110C3D" transform="translate(251,839)"/>
<path d="M0 0 C11.22 0 22.44 0 34 0 C34 11.55 34 23.1 34 35 C22.78 35 11.56 35 0 35 C0 23.45 0 11.9 0 0 Z " fill="#5E4C9F" transform="translate(771,733)"/>
<path d="M0 0 C11.22 0 22.44 0 34 0 C34 11.55 34 23.1 34 35 C22.78 35 11.56 35 0 35 C0 23.45 0 11.9 0 0 Z " fill="#EAE4FA" transform="translate(252,628)"/>
<path d="M0 0 C11.22 0 22.44 0 34 0 C34 11.55 34 23.1 34 35 C22.78 35 11.56 35 0 35 C0 23.45 0 11.9 0 0 Z " fill="#7E6CBD" transform="translate(933,407)"/>
<path d="M0 0 C30.69 0 61.38 0 93 0 C93 10.23 93 20.46 93 31 C81.45 31 69.9 31 58 31 C58 21.1 58 11.2 58 1 C38.86 1 19.72 1 0 1 C0 0.67 0 0.34 0 0 Z " fill="#7D6CBB" transform="translate(840,376)"/>
<path d="M0 0 C9.9 0 19.8 0 30 0 C30 10.56 30 21.12 30 32 C41.22 32 52.44 32 64 32 C64 32.33 64 32.66 64 33 C46.51 33.33 29.02 33.66 11 34 C10.67 58.75 10.34 83.5 10 109 C9.67 109 9.34 109 9 109 C9 84.25 9 59.5 9 34 C6.03 34 3.06 34 0 34 C0 22.78 0 11.56 0 0 Z " fill="#DBD3F7" transform="translate(321,462)"/>
<path d="M0 0 C10.89 0 21.78 0 33 0 C33.020625 3.58875 33.04125 7.1775 33.0625 10.875 C33.071604 11.98472168 33.08070801 13.09444336 33.09008789 14.23779297 C33.09258545 15.14674316 33.09508301 16.05569336 33.09765625 16.9921875 C33.10289307 17.90339355 33.10812988 18.81459961 33.11352539 19.75341797 C32.95867479 24.18181203 32.44091099 28.59089009 32 33 C21.44 33 10.88 33 0 33 C0 22.11 0 11.22 0 0 Z " fill="#5E4C9F" transform="translate(472,676)"/>
<path d="M0 0 C10.56 0 21.12 0 32 0 C32 10.89 32 21.78 32 33 C21.44 33 10.88 33 0 33 C0 22.11 0 11.22 0 0 Z " fill="#E3DCF9" transform="translate(321,409)"/>
<path d="M0 0 C14.85 0 29.7 0 45 0 C45 7.59 45 15.18 45 23 C30.15 23 15.3 23 0 23 C0 15.41 0 7.82 0 0 Z " fill="#161043" transform="translate(561,605)"/>
<path d="M0 0 C14.52 0 29.04 0 44 0 C44 7.59 44 15.18 44 23 C29.48 23 14.96 23 0 23 C0 15.41 0 7.82 0 0 Z " fill="#130D40" transform="translate(646,605)"/>
<path d="M0 0 C12.21 0 24.42 0 37 0 C37 5.61 37 11.22 37 17 C30.73 17.33 24.46 17.66 18 18 C18 23.61 18 29.22 18 35 C12.06 35 6.12 35 0 35 C0 23.45 0 11.9 0 0 Z " fill="#55436E" transform="translate(406,461)"/>
<path d="M0 0 C11.55 0 23.1 0 35 0 C35 17.16 35 34.32 35 52 C23.45 52 11.9 52 0 52 C0 51.34 0 50.68 0 50 C-32.01 50 -64.02 50 -97 50 C-97 49.67 -97 49.34 -97 49 C-64.99 49 -32.98 49 0 49 C0 42.73 0 36.46 0 30 C11.22 30 22.44 30 34 30 C34 20.43 34 10.86 34 1 C22.78 1 11.56 1 0 1 C0 0.67 0 0.34 0 0 Z " fill="#6352A2" transform="translate(418,327)"/>
<path d="M0 0 C14.52 0 29.04 0 44 0 C44 6.93 44 13.86 44 21 C29.48 21 14.96 21 0 21 C0 14.07 0 7.14 0 0 Z " fill="#110B3E" transform="translate(806,566)"/>
<path d="M0 0 C14.52 0 29.04 0 44 0 C44 6.6 44 13.2 44 20 C29.48 20 14.96 20 0 20 C0 13.4 0 6.8 0 0 Z " fill="#0E0A3B" transform="translate(806,629)"/>
<path d="M0 0 C14.52 0 29.04 0 44 0 C44 6.6 44 13.2 44 20 C29.48 20 14.96 20 0 20 C0 13.4 0 6.8 0 0 Z " fill="#0F0A3A" transform="translate(806,433)"/>
<path d="M0 0 C13.53 0 27.06 0 41 0 C41 6.93 41 13.86 41 21 C27.47 21 13.94 21 0 21 C0 14.07 0 7.14 0 0 Z " fill="#140F41" transform="translate(736,562)"/>
<path d="M0 0 C13.53 0 27.06 0 41 0 C41 6.93 41 13.86 41 21 C27.47 21 13.94 21 0 21 C0 14.07 0 7.14 0 0 Z " fill="#100A3C" transform="translate(736,499)"/>
<path d="M0 0 C6.6 0 13.2 0 20 0 C20 13.86 20 27.72 20 42 C13.4 42 6.8 42 0 42 C0 28.14 0 14.28 0 0 Z " fill="#120C3E" transform="translate(859,520)"/>
<path d="M0 0 C6.6 0 13.2 0 20 0 C20 13.86 20 27.72 20 42 C13.4 42 6.8 42 0 42 C0 28.14 0 14.28 0 0 Z " fill="#120D3C" transform="translate(777,520)"/>
<path d="M0 0 C6.6 0 13.2 0 20 0 C20 13.86 20 27.72 20 42 C13.4 42 6.8 42 0 42 C0 28.14 0 14.28 0 0 Z " fill="#120D3D" transform="translate(716,520)"/>
<path d="M0 0 C6.6 0 13.2 0 20 0 C20 13.86 20 27.72 20 42 C13.4 42 6.8 42 0 42 C0 28.14 0 14.28 0 0 Z " fill="#0F0A3B" transform="translate(851,454)"/>
<path d="M0 0 C6.6 0 13.2 0 20 0 C20 13.86 20 27.72 20 42 C13.4 42 6.8 42 0 42 C0 28.14 0 14.28 0 0 Z " fill="#100B3D" transform="translate(785,454)"/>
<path d="M0 0 C14.52 0 29.04 0 44 0 C44 6.27 44 12.54 44 19 C29.48 19 14.96 19 0 19 C0 12.73 0 6.46 0 0 Z " fill="#0F0A3B" transform="translate(806,496)"/>
<path d="M0 0 C6.6 0 13.2 0 20 0 C20 13.53 20 27.06 20 41 C13.4 41 6.8 41 0 41 C0 27.47 0 13.94 0 0 Z " fill="#0F093A" transform="translate(851,587)"/>
<path d="M0 0 C6.6 0 13.2 0 20 0 C20 13.53 20 27.06 20 41 C13.4 41 6.8 41 0 41 C0 27.47 0 13.94 0 0 Z " fill="#100A3B" transform="translate(785,587)"/>
<path d="M0 0 C13.53 0 27.06 0 41 0 C41 6.6 41 13.2 41 20 C27.47 20 13.94 20 0 20 C0 13.4 0 6.8 0 0 Z " fill="#100B3D" transform="translate(879,562)"/>
<path d="M0 0 C13.53 0 27.06 0 41 0 C41 6.6 41 13.2 41 20 C27.47 20 13.94 20 0 20 C0 13.4 0 6.8 0 0 Z " fill="#0F0A3D" transform="translate(879,500)"/>
<path d="M0 0 C6.27 0 12.54 0 19 0 C19 13.53 19 27.06 19 41 C12.73 41 6.46 41 0 41 C0 27.47 0 13.94 0 0 Z " fill="#0E0939" transform="translate(921,521)"/>
<path d="M0 0 C11.55 0 23.1 0 35 0 C35 6.27 35 12.54 35 19 C36.32 19.33 37.64 19.66 39 20 C37.68 20 36.36 20 35 20 C35 20.66 35 21.32 35 22 C23.45 22 11.9 22 0 22 C0 14.74 0 7.48 0 0 Z " fill="#5F4EA0" transform="translate(801,357)"/>
<path d="M0 0 C11.22 0 22.44 0 34 0 C34 6.93 34 13.86 34 21 C22.78 21 11.56 21 0 21 C0 14.07 0 7.14 0 0 Z " fill="#C9BEF0" transform="translate(252,607)"/>
<path d="M0 0 C2.97 0 5.94 0 9 0 C9 24.75 9 49.5 9 75 C6.03 75 3.06 75 0 75 C0 50.25 0 25.5 0 0 Z " fill="#C4B8EE" transform="translate(321,496)"/>
<path d="M0 0 C10.89 0 21.78 0 33 0 C32.67 0.66 32.34 1.32 32 2 C31.76759495 4.71426141 31.58091198 7.40633767 31.4375 10.125 C31.293125 12.72375 31.14875 15.3225 31 18 C20.77 18 10.54 18 0 18 C0 12.06 0 6.12 0 0 Z " fill="#594674" transform="translate(352,516)"/>
<path d="M0 0 C7.26 0 14.52 0 22 0 C22 6.6 22 13.2 22 20 C17.606875 20.0309375 17.606875 20.0309375 13.125 20.0625 C11.74272217 20.07615601 11.74272217 20.07615601 10.33251953 20.09008789 C9.24366455 20.09383423 9.24366455 20.09383423 8.1328125 20.09765625 C7.01737061 20.10551147 7.01737061 20.10551147 5.87939453 20.11352539 C4 20 4 20 2 19 C1.67 25.93 1.34 32.86 1 40 C14.86 40 28.72 40 43 40 C43 27.13 43 14.26 43 1 C40.69 1 38.38 1 36 1 C36 0.67 36 0.34 36 0 C38.64 0 41.28 0 44 0 C44 13.53 44 27.06 44 41 C29.48 41 14.96 41 0 41 C0 27.47 0 13.94 0 0 Z " fill="#E4B7FA" transform="translate(806,587)"/>
<path d="M0 0 C15.18 0 30.36 0 46 0 C46 6.93 46 13.86 46 21 C52.6 21 59.2 21 66 21 C66 21.33 66 21.66 66 22 C59.4 22 52.8 22 46 22 C46 42.46 46 62.92 46 84 C30.82 84 15.64 84 0 84 C0 63.54 0 43.08 0 22 C-6.6 22 -13.2 22 -20 22 C-20 21.67 -20 21.34 -20 21 C-13.4 21 -6.8 21 0 21 C0 14.07 0 7.14 0 0 Z M1 1 C1 7.6 1 14.2 1 21 C15.52 21 30.04 21 45 21 C45 14.4 45 7.8 45 1 C30.48 1 15.96 1 1 1 Z M1 22 C1 35.53 1 49.06 1 63 C15.52 63 30.04 63 45 63 C45 49.47 45 35.94 45 22 C30.48 22 15.96 22 1 22 Z M1 64 C1 70.27 1 76.54 1 83 C15.52 83 30.04 83 45 83 C45 76.73 45 70.46 45 64 C30.48 64 15.96 64 1 64 Z " fill="#696A8A" transform="translate(805,432)"/>
<path d="M0 0 C11.55 0 23.1 0 35 0 C35 12.21 35 24.42 35 37 C46.22 37 57.44 37 69 37 C69 37.33 69 37.66 69 38 C57.78 38 46.56 38 35 38 C35 92.12 35 146.24 35 202 C58.1 202 81.2 202 105 202 C105 202.33 105 202.66 105 203 C81.57 203 58.14 203 34 203 C34 148.55 34 94.1 34 38 C22.78 38 11.56 38 0 38 C0 37.67 0 37.34 0 37 C11.22 37 22.44 37 34 37 C34 25.12 34 13.24 34 1 C22.78 1 11.56 1 0 1 C0 0.67 0 0.34 0 0 Z " fill="#453F71" transform="translate(933,369)"/>
<path d="M0 0 C1.73830078 0.00386719 1.73830078 0.00386719 3.51171875 0.0078125 C4.66285156 0.00523437 5.81398438 0.00265625 7 0 C10.19921875 0.1328125 10.19921875 0.1328125 14.19921875 1.1328125 C14.19921875 6.7428125 14.19921875 12.3528125 14.19921875 18.1328125 C8.25921875 18.1328125 2.31921875 18.1328125 -3.80078125 18.1328125 C-3.82140625 15.3484375 -3.84203125 12.5640625 -3.86328125 9.6953125 C-3.87238525 8.81689697 -3.88148926 7.93848145 -3.89086914 7.03344727 C-3.89801216 5.06635276 -3.85110018 3.09927629 -3.80078125 1.1328125 C-2.80078125 0.1328125 -2.80078125 0.1328125 0 0 Z " fill="#523F6C" transform="translate(409.80078125,477.8671875)"/>
<path d="M0 0 C5.94 0.33 11.88 0.66 18 1 C18 6.61 18 12.22 18 18 C12.06 18 6.12 18 0 18 C0 12.06 0 6.12 0 0 Z " fill="#614E7B" transform="translate(406,461)"/>
<path d="M0 0 C0.33 0 0.66 0 1 0 C1 20.46 1 40.92 1 62 C15.52 62 30.04 62 45 62 C45 41.54 45 21.08 45 0 C45.33 0 45.66 0 46 0 C46 20.46 46 40.92 46 62 C52.6 62 59.2 62 66 62 C66 62.33 66 62.66 66 63 C59.4 63 52.8 63 46 63 C46 69.6 46 76.2 46 83 C45.67 83 45.34 83 45 83 C45 76.4 45 69.8 45 63 C30.48 63 15.96 63 1 63 C1 69.6 1 76.2 1 83 C0.67 83 0.34 83 0 83 C0 76.4 0 69.8 0 63 C-6.6 63 -13.2 63 -20 63 C-20 62.67 -20 62.34 -20 62 C-13.4 62 -6.8 62 0 62 C0 48.47 0 34.94 0 21 C-6.6 21 -13.2 21 -20 21 C-20 20.67 -20 20.34 -20 20 C-13.4 20 -6.8 20 0 20 C0 13.4 0 6.8 0 0 Z " fill="#6F5B9A" transform="translate(805,566)"/>
<path d="M0 0 C13.86 0 27.72 0 42 0 C42 6.93 42 13.86 42 21 C48.6 21 55.2 21 62 21 C62 34.86 62 48.72 62 63 C61.67 63 61.34 63 61 63 C61 49.47 61 35.94 61 22 C54.73 22 48.46 22 42 22 C42 42.46 42 62.92 42 84 C28.14 84 14.28 84 0 84 C0 83.67 0 83.34 0 83 C13.53 83 27.06 83 41 83 C41 62.87 41 42.74 41 22 C27.47 22 13.94 22 0 22 C0 21.67 0 21.34 0 21 C13.53 21 27.06 21 41 21 C41 14.4 41 7.8 41 1 C27.47 1 13.94 1 0 1 C0 0.67 0 0.34 0 0 Z " fill="#665485" transform="translate(879,499)"/>
<path d="M0 0 C0.33 0 0.66 0 1 0 C1 2.31 1 4.62 1 7 C62.05 7 123.1 7 186 7 C186 4.69 186 2.38 186 0 C187.65 0 189.3 0 191 0 C191 2.31 191 4.62 191 7 C187.18106687 8.23229087 183.38652965 8.13639326 179.41973877 8.12025452 C178.26917578 8.12153615 178.26917578 8.12153615 177.0953691 8.12284368 C174.52351663 8.12449164 171.95172928 8.11898829 169.37988281 8.11352539 C167.53695172 8.11324335 165.69402051 8.11340159 163.85108948 8.1139679 C158.84527783 8.11425519 153.83949006 8.10836934 148.83368397 8.10139394 C143.60329624 8.09514919 138.37290798 8.09455571 133.14251709 8.09336853 C123.23679896 8.09025853 113.33109184 8.08204959 103.42537856 8.07201904 C92.14859737 8.06084764 80.87181565 8.05534486 69.59503031 8.05032361 C46.39668076 8.03986672 23.198341 8.02227366 0 8 C0 5.36 0 2.72 0 0 Z " fill="#8676C2" transform="translate(525,669)"/>
<path d="M0 0 C21.45 0 42.9 0 65 0 C65 0.33 65 0.66 65 1 C68.63 1.33 72.26 1.66 76 2 C76 2.33 76 2.66 76 3 C43.66 3 11.32 3 -22 3 C-22 2.67 -22 2.34 -22 2 C-14.74 1.67 -7.48 1.34 0 1 C0 0.67 0 0.34 0 0 Z " fill="#F2F1F5" transform="translate(788,285)"/>
<path d="M0 0 C33.33 0 66.66 0 101 0 C101.495 1.485 101.495 1.485 102 3 C68.01 3 34.02 3 -1 3 C-0.67 2.01 -0.34 1.02 0 0 Z M14 1 C14 1.33 14 1.66 14 2 C41.39 2 68.78 2 97 2 C97 1.67 97 1.34 97 1 C69.61 1 42.22 1 14 1 Z " fill="#F1F0F4" transform="translate(386,285)"/>
<path d="M0 0 C13.53 0 27.06 0 41 0 C41 6.93 41 13.86 41 21 C28.46 20.67 15.92 20.34 3 20 C3 19.67 3 19.34 3 19 C14.88 19 26.76 19 39 19 C39 13.39 39 7.78 39 2 C26.79 2 14.58 2 2 2 C2 8.27 2 14.54 2 21 C1.34 21 0.68 21 0 21 C0 14.07 0 7.14 0 0 Z " fill="#1A1645" transform="translate(736,499)"/>
<path d="M0 0 C0.66 0 1.32 0 2 0 C2 13.2 2 26.4 2 40 C7.61 40 13.22 40 19 40 C19 29.11 19 18.22 19 7 C19.33 7 19.66 7 20 7 C20 18.55 20 30.1 20 42 C13.4 42 6.8 42 0 42 C0 28.14 0 14.28 0 0 Z " fill="#191644" transform="translate(785,454)"/>
<path d="M0 0 C1.98 0 3.96 0 6 0 C5.02885254 0.73428223 5.02885254 0.73428223 4.03808594 1.48339844 C1.25027787 4.92574697 1.39695418 8.01874399 1.390625 12.265625 C1.37499512 12.96929199 1.35936523 13.67295898 1.34326172 14.39794922 C1.29084261 17.01495916 1.27242604 19.6325612 1.25 22.25 C1.1675 28.1075 1.085 33.965 1 40 C14.86 40 28.72 40 43 40 C43 27.13 43 14.26 43 1 C41.35 1 39.7 1 38 1 C38 0.67 38 0.34 38 0 C39.98 0 41.96 0 44 0 C44 13.53 44 27.06 44 41 C29.48 41 14.96 41 0 41 C0 27.47 0 13.94 0 0 Z " fill="#EFFDDD" transform="translate(806,454)"/>
<path d="M0 0 C1.65 0 3.3 0 5 0 C5 2.31 5 4.62 5 7 C1.25037942 8.19910499 -2.44608036 8.13389975 -6.33886719 8.11352539 C-7.43702003 8.11374443 -7.43702003 8.11374443 -8.55735779 8.1139679 C-10.97056062 8.11327276 -13.3836857 8.10549908 -15.796875 8.09765625 C-17.47267617 8.09579065 -19.14847788 8.09436742 -20.82427979 8.09336853 C-25.23013826 8.08955452 -29.63596366 8.07973376 -34.04180908 8.06866455 C-38.53958692 8.05842643 -43.03737011 8.05386576 -47.53515625 8.04882812 C-56.35678535 8.0381105 -65.17838992 8.02104747 -74 8 C-74 7.67 -74 7.34 -74 7 C-49.58 7 -25.16 7 0 7 C0 4.69 0 2.38 0 0 Z " fill="#8676C3" transform="translate(711,669)"/>
<path d="M0 0 C0.33 0 0.66 0 1 0 C1 4.62 1 9.24 1 14 C-5.6 14 -12.2 14 -19 14 C-18.67 13.01 -18.34 12.02 -18 11 C-12.39 11 -6.78 11 -1 11 C-0.67 7.37 -0.34 3.74 0 0 Z " fill="#181342" transform="translate(870,482)"/>
<path d="M0 0 C0.33 0 0.66 0 1 0 C1 6.6 1 13.2 1 20 C-0.98 20 -2.96 20 -5 20 C-4.505 18.515 -4.505 18.515 -4 17 C-3.34 17 -2.68 17 -2 17 C-2 14.36 -2 11.72 -2 9 C-1.67 9 -1.34 9 -1 9 C-0.67 6.03 -0.34 3.06 0 0 Z " fill="#B3A8E1" transform="translate(735,500)"/>
<path d="M0 0 C1.65 0 3.3 0 5 0 C5 2.31 5 4.62 5 7 C3.35 7 1.7 7 0 7 C0 4.69 0 2.38 0 0 Z " fill="#9987D4" transform="translate(711,669)"/>
<path d="M0 0 C1.98 0 3.96 0 6 0 C5.35546875 0.48984375 4.7109375 0.9796875 4.046875 1.484375 C1.27210723 4.89458577 1.33199765 8.03084833 1.25 12.25 C1.22035156 12.99507813 1.19070313 13.74015625 1.16015625 14.5078125 C1.0897657 16.33796672 1.04258168 18.16898769 1 20 C0.67 20 0.34 20 0 20 C0 13.4 0 6.8 0 0 Z " fill="#F6FCF1" transform="translate(806,454)"/>
<path d="M0 0 C2.97 0 5.94 0 9 0 C9 0.99 9 1.98 9 3 C6.03 3 3.06 3 0 3 C0 2.01 0 1.02 0 0 Z " fill="#B2A6E2" transform="translate(931,517)"/>
<path d="M0 0 C3.3 0 6.6 0 10 0 C10 0.33 10 0.66 10 1 C8.02 1 6.04 1 4 1 C4 1.99 4 2.98 4 4 C3.01 4.33 2.02 4.66 1 5 C0.67 3.35 0.34 1.7 0 0 Z " fill="#EFEFF3" transform="translate(401,862)"/>
</svg>
